<?xml version="1.0" standalone="no"?>
<!DOCTYPE svg PUBLIC "-//W3C//DTD SVG 20010904//EN"
 "http://www.w3.org/TR/2001/REC-SVG-20010904/DTD/svg10.dtd">
<svg version="1.0" xmlns="http://www.w3.org/2000/svg"
 width="1024.000000pt" height="1024.000000pt" viewBox="0 0 1024.000000 1024.000000"
 preserveAspectRatio="xMidYMid meet">

<g transform="translate(0.000000,1024.000000) scale(0.100000,-0.100000)"
fill="#000000" stroke="none">
<path d="M1245 8440 c-85 -35 -133 -193 -122 -400 10 -183 65 -385 173 -638
24 -57 44 -109 44 -114 0 -20 -178 261 -290 457 -91 160 -136 201 -195 179 -9
-4 -26 -25 -38 -48 -18 -34 -22 -62 -25 -166 -2 -69 1 -152 7 -185 39 -212
163 -458 363 -719 l22 -29 -30 19 c-16 10 -31 21 -34 25 -3 3 -52 44 -110 89
-58 46 -129 105 -159 132 -76 69 -136 108 -176 115 -30 5 -36 2 -54 -28 -57
-93 18 -340 158 -527 71 -94 154 -173 296 -283 58 -44 105 -82 105 -84 0 -9
-67 19 -233 95 -100 46 -197 85 -221 87 -78 9 -95 -39 -51 -148 65 -160 231
-318 455 -432 58 -30 112 -56 120 -59 8 -3 12 -8 9 -11 -3 -4 -46 0 -95 8
-104 17 -192 19 -228 5 -21 -8 -26 -16 -26 -43 0 -97 179 -235 435 -334 l99
-38 -78 -7 c-87 -8 -126 -27 -126 -61 0 -28 39 -83 77 -109 51 -36 179 -94
247 -114 36 -10 66 -22 66 -25 0 -4 -15 -10 -34 -13 -46 -9 -70 -38 -61 -73
15 -64 167 -169 315 -219 64 -21 64 -21 32 -29 -21 -4 -37 -16 -44 -31 -32
-70 166 -186 384 -225 62 -11 67 -14 53 -29 -70 -78 104 -189 298 -190 61 0
63 -1 47 -31 -22 -39 43 -99 108 -99 17 0 32 -2 32 -4 0 -2 -17 -33 -38 -69
-21 -36 -44 -83 -51 -105 l-13 -39 -124 43 c-68 24 -156 57 -194 74 -109 46
-167 61 -196 50 -31 -12 -41 -37 -25 -62 16 -26 6 -35 -16 -16 -33 29 -220
128 -242 128 -13 0 -26 -9 -32 -24 -15 -32 8 -74 85 -155 34 -35 52 -61 41
-57 -103 40 -179 57 -201 47 -49 -22 -26 -77 70 -171 77 -75 167 -133 246
-157 67 -21 65 -19 51 -37 -25 -30 36 -88 130 -122 109 -39 337 -36 460 7 l61
21 52 -50 c99 -97 248 -173 409 -209 40 -9 74 -17 76 -19 1 -1 -21 -37 -49
-79 -93 -134 -205 -220 -384 -297 -54 -23 -111 -55 -126 -70 -16 -15 -42 -62
-60 -105 -47 -116 -94 -195 -156 -265 -76 -86 -134 -175 -134 -205 0 -44 27
-81 69 -94 36 -11 45 -9 105 19 l66 31 5 -27 c19 -90 93 -161 155 -147 44 10
105 85 130 160 l21 64 33 -32 c70 -70 163 -88 207 -41 21 22 24 35 23 92 -1
56 -12 99 -71 264 l-70 198 66 39 c135 81 300 237 425 403 22 29 32 36 45 29
25 -14 153 -31 228 -31 76 0 297 24 369 40 26 6 49 9 51 6 7 -6 -54 -156 -86
-211 -41 -72 -115 -150 -185 -197 -95 -63 -123 -95 -157 -177 -49 -119 -68
-151 -128 -224 -93 -114 -110 -138 -120 -174 -14 -48 3 -88 44 -107 41 -20 73
-20 118 -1 50 21 54 20 67 -20 6 -19 35 -60 64 -90 44 -46 57 -55 87 -55 56 0
113 74 140 181 l13 49 40 -39 c53 -51 125 -85 158 -72 41 16 53 39 52 105 -1
69 -2 74 -91 324 l-65 182 56 68 c137 163 221 304 271 457 l33 100 88 45 c217
110 361 215 492 355 82 87 167 211 207 300 15 33 29 62 31 64 1 2 23 -13 47
-33 58 -47 169 -98 228 -104 41 -4 51 -1 73 21 17 17 26 37 26 56 l0 31 63
-34 c81 -44 161 -61 217 -46 55 15 90 50 90 91 0 24 3 30 16 25 9 -3 46 -11
83 -17 130 -22 264 34 210 88 -7 7 12 12 68 15 81 5 180 35 223 67 28 20 37
60 20 91 -10 19 -8 20 42 20 121 1 299 62 334 116 15 23 15 49 0 85 -6 13 8
19 71 32 97 21 167 53 216 99 45 42 49 77 12 106 l-25 20 82 27 c148 48 293
137 325 199 38 73 -14 107 -172 114 l-110 5 98 32 c112 38 246 100 312 145
113 78 217 198 231 267 5 24 1 36 -15 52 -27 27 -74 27 -172 1 -41 -11 -128
-34 -194 -51 -66 -17 -126 -32 -132 -34 -28 -9 -11 14 18 24 54 19 261 147
344 214 150 119 261 285 272 406 5 50 3 61 -15 79 -33 33 -97 12 -270 -91
-242 -144 -288 -164 -197 -86 235 203 394 418 456 619 32 104 34 255 3 297
-48 64 -93 37 -225 -134 -84 -108 -263 -302 -272 -293 -3 3 11 32 30 65 152
257 233 504 233 709 -1 130 -34 199 -97 199 -44 -1 -90 -64 -190 -264 -158
-316 -381 -642 -553 -807 -267 -256 -326 -306 -530 -441 -177 -119 -234 -164
-420 -342 -91 -86 -194 -182 -230 -213 -94 -83 -277 -203 -415 -273 -137 -69
-333 -141 -343 -127 -4 6 -48 68 -98 140 -148 210 -234 350 -314 509 -82 163
-123 278 -141 395 -15 97 -6 298 16 368 14 48 19 53 38 48 62 -17 185 -17 262
0 88 18 97 19 201 9 110 -11 503 38 597 74 43 17 71 14 241 -24 168 -38 196
-37 196 9 0 68 -199 246 -458 410 -51 32 -92 60 -92 63 0 2 9 13 20 25 55 60
72 154 45 256 -23 87 -47 134 -96 187 -53 58 -100 70 -227 60 -53 -4 -140 -7
-192 -7 -527 6 -501 7 -598 -16 -141 -32 -230 -79 -322 -171 -172 -169 -260
-371 -260 -596 0 -55 7 -152 15 -215 8 -63 19 -178 25 -255 14 -172 33 -313
66 -470 53 -254 55 -266 44 -304 -5 -20 -22 -49 -37 -63 -35 -34 -170 -101
-290 -144 l-91 -33 -61 37 c-99 60 -349 236 -438 307 -155 124 -276 256 -464
505 -101 135 -190 231 -306 331 -213 183 -346 324 -491 516 -34 45 -68 86 -76
90 -37 22 -210 307 -302 498 -107 223 -136 300 -266 718 -43 137 -88 184 -153
157z m82 -90 c12 -25 44 -121 72 -215 96 -330 258 -685 433 -951 50 -77 96
-142 102 -146 12 -8 16 -69 4 -61 -5 2 -8 12 -8 22 0 10 -8 25 -17 32 -16 13
-17 12 -4 -4 8 -9 12 -20 9 -22 -8 -9 -172 167 -215 230 -180 267 -314 562
-387 855 -47 192 -53 225 -45 228 5 2 9 12 9 23 0 10 5 19 11 19 6 0 9 -7 6
-15 -7 -17 9 -30 18 -15 9 14 -21 60 -38 60 -19 0 -53 -39 -71 -80 -8 -19 -15
-29 -16 -22 0 16 28 71 48 95 28 31 64 18 89 -33z m-146 -131 c-5 -26 -9 -34
-10 -19 -1 27 9 73 15 67 2 -2 0 -23 -5 -48z m-14 -156 c-2 -21 -4 -4 -4 37 0
41 2 58 4 38 2 -21 2 -55 0 -75z m10 -95 c-2 -13 -4 -5 -4 17 -1 22 1 32 4 23
2 -10 2 -28 0 -40z m10 -65 c-3 -10 -5 -4 -5 12 0 17 2 24 5 18 2 -7 2 -21 0
-30z m-263 -39 c14 -15 45 -61 68 -103 111 -202 230 -382 361 -546 105 -131
105 -131 90 -122 -7 5 -49 53 -94 108 -45 55 -84 97 -87 94 -3 -3 0 -11 6 -17
7 -7 12 -17 12 -22 0 -6 -23 14 -50 44 -27 30 -48 61 -45 68 3 7 1 11 -4 8
-18 -11 -144 177 -243 363 -36 68 -37 74 -21 86 15 11 15 15 4 29 -11 13 -51
23 -51 14 -1 -17 -29 -78 -30 -65 0 28 30 87 45 87 7 0 24 -12 39 -26z m273
-16 c-3 -7 -5 -2 -5 12 0 14 2 19 5 13 2 -7 2 -19 0 -25z m27 -98 c4 -24 3
-29 -3 -15 -4 11 -11 36 -15 55 -4 24 -3 29 3 15 4 -11 11 -36 15 -55z m-387
-112 c-2 -29 -3 -8 -3 47 0 55 1 79 3 53 2 -26 2 -71 0 -100z m497 -192 c10
-21 15 -40 13 -42 -5 -6 -103 241 -112 281 -3 17 14 -22 38 -85 25 -63 52
-132 61 -154z m-476 49 c0 -16 -2 -15 -8 5 -4 14 -8 36 -8 50 0 22 1 22 8 -5
4 -16 8 -39 8 -50z m4412 11 c52 0 141 4 196 9 114 9 137 1 199 -66 l30 -32
-39 23 c-22 13 -65 27 -100 31 l-61 7 62 -1 c68 -2 73 7 11 24 -30 8 -73 7
-164 -2 -96 -9 -162 -9 -296 0 -95 7 -202 9 -238 6 -275 -25 -373 -59 -507
-176 -56 -49 -55 -49 7 11 144 137 326 186 650 172 85 -3 198 -6 250 -6z
m-233 -34 c6 -4 -28 -5 -76 -4 -64 3 -98 0 -125 -12 -53 -22 -60 -19 -11 5 41
19 187 27 212 11z m-4121 -169 c-5 -5 -56 147 -55 162 0 6 14 -28 30 -74 16
-47 27 -86 25 -88z m4573 163 c-10 -9 -69 -36 -69 -32 0 7 52 35 64 36 5 0 7
-2 5 -4z m2471 -36 c11 -11 19 -30 19 -42 -2 -22 -2 -23 -6 -2 -7 35 -35 55
-55 40 -30 -22 -90 -143 -83 -168 4 -15 3 -18 -2 -10 -7 8 -14 1 -26 -25 -11
-23 -12 -31 -4 -21 8 10 17 15 20 12 3 -4 12 6 19 22 7 16 15 31 19 34 4 3 16
21 28 40 42 70 20 14 -39 -95 -104 -196 -159 -286 -253 -415 -112 -153 -177
-231 -189 -224 -5 3 -7 0 -6 -8 2 -7 -3 -12 -9 -11 -7 2 -12 0 -11 -5 2 -6
-50 -63 -192 -212 -64 -67 -27 -18 69 90 202 229 399 523 540 809 70 143 113
211 132 211 5 0 18 -9 29 -20z m-3228 -35 c-27 -24 -55 -58 -62 -75 -7 -17
-15 -29 -17 -26 -14 14 98 146 123 146 3 0 -16 -20 -44 -45z m393 25 c10 -11
16 -20 13 -20 -3 0 -13 9 -23 20 -10 11 -16 20 -13 20 3 0 13 -9 23 -20z m285
7 c0 -2 -12 -14 -27 -28 l-28 -24 24 28 c23 25 31 32 31 24z m-351 -31 c47
-24 71 -50 84 -91 6 -19 6 -19 -6 -1 -52 78 -103 106 -198 106 -71 0 -122 -19
-179 -65 l-35 -29 25 28 c66 75 213 100 309 52z m571 4 c62 -31 126 -131 83
-129 -10 0 -13 3 -6 6 16 6 -5 48 -39 79 -54 50 -116 65 -175 44 -26 -9 -27
-9 -9 5 28 21 100 19 146 -5z m-459 -27 c13 -16 12 -17 -3 -4 -10 7 -18 15
-18 17 0 8 8 3 21 -13z m269 3 c0 -2 -8 -10 -17 -17 -16 -13 -17 -12 -4 4 13
16 21 21 21 13z m-4060 -41 c0 -5 -5 -3 -10 5 -5 8 -10 20 -10 25 0 6 5 3 10
-5 5 -8 10 -19 10 -25z m6607 -72 c-2 -21 -4 -6 -4 32 0 39 2 55 4 38 2 -18 2
-50 0 -70z m-2777 43 c0 -12 -5 -7 -19 24 -11 24 -11 24 3 6 9 -11 16 -24 16
-30z m-3791 -61 c0 -5 -8 6 -19 25 -11 19 -19 40 -19 45 0 6 8 -6 19 -25 11
-19 19 -39 19 -45z m3908 -17 c-2 -18 -4 -6 -4 27 0 33 2 48 4 33 2 -15 2 -42
0 -60z m-4387 27 c0 -5 -5 -3 -10 5 -5 8 -10 20 -10 25 0 6 5 3 10 -5 5 -8 10
-19 10 -25z m4277 -2 c-3 -10 -5 -4 -5 12 0 17 2 24 5 18 2 -7 2 -21 0 -30z
m-570 -35 c-2 -13 -4 -3 -4 22 0 25 2 35 4 23 2 -13 2 -33 0 -45z m956 -15
c-3 -19 0 -39 7 -48 31 -38 98 1 86 50 -6 22 -3 25 20 25 25 0 25 -2 19 -42
-9 -56 -28 -99 -51 -120 -18 -16 -25 -14 -139 43 -66 32 -127 59 -137 59 -9 0
-21 13 -26 30 l-11 29 52 4 c29 2 82 3 118 3 l67 -1 -5 -32z m-4165 2 c-3 -3
-9 2 -12 12 -6 14 -5 15 5 6 7 -7 10 -15 7 -18z m3560 -15 c-1 -38 18 -60 51
-60 36 0 51 17 51 57 0 31 2 33 35 33 l34 0 -14 -46 c-29 -96 -118 -152 -225
-141 -107 12 -189 60 -221 131 l-18 41 117 5 c64 4 134 7 154 8 35 2 37 0 36
-28z m2979 -27 c-3 -10 -5 -2 -5 17 0 19 2 27 5 18 2 -10 2 -26 0 -35z m-6981
-15 c15 -29 44 -82 65 -118 22 -36 29 -53 17 -38 -26 30 -123 208 -114 208 3
0 18 -24 32 -52z m464 7 c0 -5 -5 -3 -10 5 -5 8 -10 20 -10 25 0 6 5 3 10 -5
5 -8 10 -19 10 -25z m3232 -42 c6 -7 8 -13 4 -13 -10 0 -46 63 -46 80 1 8 7 0
16 -19 8 -19 19 -41 26 -48z m-3212 -8 c0 -5 -5 -3 -10 5 -5 8 -10 20 -10 25
0 6 5 3 10 -5 5 -8 10 -19 10 -25z m3702 -2 c-11 -15 -33 -39 -48 -53 -15 -14
-9 -3 14 24 23 27 42 53 42 59 0 6 3 8 6 4 3 -3 -3 -18 -14 -34z m271 3 c172
-71 429 -235 623 -398 82 -68 138 -131 132 -147 -2 -4 -82 9 -178 30 -251 55
-381 70 -680 79 -146 4 -298 14 -337 21 l-73 12 61 36 c94 55 197 171 258 290
65 126 71 128 194 77z m2514 2 c-3 -7 -5 -2 -5 12 0 14 2 19 5 13 2 -7 2 -19
0 -25z m-7230 -25 c28 -21 102 -82 164 -137 63 -54 198 -154 302 -223 103 -69
187 -126 187 -128 0 -2 -25 10 -55 27 -30 16 -55 27 -55 24 0 -3 -64 26 -142
66 -171 85 -266 157 -370 280 -34 41 -43 58 -47 89 -1 3 -13 11 -28 18 -21 10
-28 9 -34 -1 -5 -7 -9 -8 -9 -2 0 14 10 24 25 24 7 0 35 -17 62 -37z m4075
-63 c24 -11 37 -20 30 -20 -19 0 -83 35 -117 66 l-30 26 37 -26 c21 -15 57
-36 80 -46z m3128 -21 c-28 -95 -34 -84 -7 13 12 42 24 73 25 67 2 -5 -6 -41
-18 -80z m-7293 34 c-3 -10 -5 -2 -5 17 0 19 2 27 5 18 2 -10 2 -26 0 -35z
m4439 -18 c-11 -8 -26 -15 -34 -15 -7 0 -11 -4 -8 -9 3 -4 -6 -6 -20 -3 -24 4
-21 7 22 22 62 22 63 22 40 5z m-4429 -47 c-3 -7 -5 -2 -5 12 0 14 2 19 5 13
2 -7 2 -19 0 -25z m1494 -193 c92 -107 186 -199 329 -322 143 -124 229 -215
340 -363 248 -332 404 -478 770 -723 165 -110 412 -287 440 -315 8 -9 -16 7
-55 34 -117 82 -209 143 -215 141 -3 0 -43 18 -90 40 -193 94 -484 302 -669
477 -65 62 -226 253 -289 344 -49 70 -106 131 -392 422 -164 166 -247 270
-235 290 3 6 0 7 -8 4 -11 -4 -19 6 -27 31 -7 20 -14 34 -16 32 -9 -9 44 -142
54 -140 6 2 9 -4 6 -12 -13 -32 144 -261 329 -480 65 -77 93 -113 62 -80 -166
176 -349 428 -413 564 -18 41 -44 108 -56 150 -42 139 -41 141 10 66 26 -39
82 -110 125 -160z m2736 219 c-3 -3 -12 -4 -19 -1 -8 3 -5 6 6 6 11 1 17 -2
13 -5z m66 -11 c-7 -2 -21 -2 -30 0 -10 3 -4 5 12 5 17 0 24 -2 18 -5z m-96
-9 c-3 -3 -12 -4 -19 -1 -8 3 -5 6 6 6 11 1 17 -2 13 -5z m101 -11 c-10 -2
-26 -2 -35 0 -10 3 -2 5 17 5 19 0 27 -2 18 -5z m111 -10 c-16 -19 -71 -43
-96 -42 -10 0 3 7 28 15 26 7 52 21 59 29 7 8 15 15 17 15 3 0 -1 -7 -8 -17z
m-3933 -30 c15 -20 23 -33 16 -29 -13 8 -56 66 -49 66 3 0 17 -17 33 -37z
m811 15 c-3 -8 -6 -5 -6 6 -1 11 2 17 5 13 3 -3 4 -12 1 -19z m-1280 -10 c-3
-8 -6 -5 -6 6 -1 11 2 17 5 13 3 -3 4 -12 1 -19z m7563 -8 c0 -5 -7 -7 -15 -3
-18 6 -45 -25 -38 -43 4 -12 -67 -110 -134 -183 -27 -28 -45 -41 -53 -36 -8 5
-11 4 -7 -2 7 -12 -61 -75 -218 -203 l-100 -81 90 82 c124 114 213 207 303
319 104 130 133 160 154 160 10 0 18 -4 18 -10z m-339 -59 c-37 -92 -175 -351
-187 -351 -3 0 11 28 31 63 52 90 129 244 150 300 10 26 20 46 22 44 2 -3 -5
-27 -16 -56z m358 -26 l0 -20 -9 20 c-5 11 -9 29 -9 40 l0 20 9 -20 c5 -11 9
-29 9 -40z m-7068 28 c13 -16 12 -17 -3 -4 -17 13 -22 21 -14 21 2 0 10 -8 17
-17z m3909 4 c0 -2 -12 -14 -27 -28 l-28 -24 24 28 c23 25 31 32 31 24z
m-4263 -246 c48 -61 159 -166 261 -248 45 -36 82 -68 82 -71 0 -2 -6 0 -12 5
-134 101 -268 223 -328 298 -47 59 -140 218 -140 240 0 6 23 -32 50 -84 28
-52 67 -115 87 -140z m574 6 c10 -18 -44 36 -154 153 -29 30 -8 12 46 -40 54
-52 103 -103 108 -113z m3629 189 c0 -2 -8 -10 -17 -17 -16 -13 -17 -12 -4 4
13 16 21 21 21 13z m3200 -112 c-16 -78 -21 -63 -7 21 6 38 13 62 15 52 2 -9
-2 -42 -8 -73z m-3260 71 c0 -2 -13 -11 -30 -20 -38 -19 -40 -11 -2 9 31 17
32 18 32 11z m63 -121 c17 -3 147 -9 287 -14 248 -9 450 -26 450 -40 0 -15
-359 -63 -485 -64 l-130 -1 -91 47 c-50 26 -99 57 -109 68 -20 22 -26 22 78 4z
m-3166 -10 c-3 -3 -12 -4 -19 -1 -8 3 -5 6 6 6 11 1 17 -2 13 -5z m94 -50 c44
-32 89 -82 89 -98 0 -3 -17 13 -37 36 -21 23 -56 54 -77 70 -21 15 -36 28 -31
28 4 0 29 -16 56 -36z m6230 -11 c-12 -20 -14 -14 -5 12 4 9 9 14 11 11 3 -2
0 -13 -6 -23z m-6334 -17 c-7 -14 -13 -23 -15 -21 -7 6 9 45 18 45 4 0 3 -11
-3 -24z m84 -23 c25 -21 56 -46 70 -56 24 -18 24 -18 -6 -1 -16 9 -41 27 -55
39 -14 12 -36 29 -50 38 -13 10 -20 17 -15 17 6 0 31 -17 56 -37z m6204 -53
c-19 -34 -45 -76 -57 -93 -31 -45 -166 -205 -180 -213 -7 -4 24 35 68 87 87
102 125 156 169 237 16 28 30 50 32 48 2 -2 -12 -31 -32 -66z m-3088 44 c-3
-3 -12 -4 -19 -1 -8 3 -5 6 6 6 11 1 17 -2 13 -5z m-452 -22 c-3 -3 -11 0 -18
7 -9 10 -8 11 6 5 10 -3 15 -9 12 -12z m-2758 -59 c-3 -10 -5 -2 -5 17 0 19 2
27 5 18 2 -10 2 -26 0 -35z m2843 40 c0 -5 -5 -15 -10 -23 -8 -13 -10 -13 -10
2 0 9 -6 19 -12 21 -7 3 -3 6 10 6 12 1 22 -2 22 -6z m2980 -52 c-5 -11 -15
-23 -21 -27 -6 -3 -3 5 6 20 20 30 30 35 15 7z m-3006 -30 c-4 -17 -9 -30 -11
-27 -3 2 -2 19 2 36 9 41 17 33 9 -9z m-2744 -122 c13 -19 44 -57 69 -85 30
-32 25 -29 -15 11 -58 59 -124 168 -124 204 0 9 11 -9 24 -40 12 -31 33 -71
46 -90z m-1110 56 c30 -12 123 -52 205 -87 83 -36 203 -82 268 -103 64 -21
116 -40 114 -42 -2 -2 -55 12 -118 31 -63 19 -123 37 -134 41 -11 3 -2 -4 20
-15 22 -11 31 -18 20 -15 -11 2 -33 7 -50 11 -47 10 -286 113 -313 135 -18 14
-20 19 -9 19 9 0 20 -8 26 -17 7 -13 13 -15 21 -7 13 13 -100 64 -143 64 -16
0 -26 4 -22 10 8 12 42 5 115 -25z m3837 -37 c-2 -13 -4 -5 -4 17 -1 22 1 32
4 23 2 -10 2 -28 0 -40z m-3940 20 c-3 -8 -6 -5 -6 6 -1 11 2 17 5 13 3 -3 4
-12 1 -19z m32 -75 c12 -24 19 -43 16 -43 -5 0 -45 75 -45 86 0 11 6 2 29 -43z
m531 -19 c0 -3 -20 9 -45 26 -25 17 -45 33 -45 36 0 3 20 -9 45 -26 25 -17 45
-33 45 -36z m5829 29 c-26 -69 -100 -196 -161 -278 -37 -49 -179 -202 -315
-340 -137 -137 -288 -294 -337 -347 -49 -54 -93 -98 -98 -98 -11 0 84 100 433
455 140 143 280 294 311 335 52 70 138 218 138 236 0 4 -13 -5 -30 -21 -16
-15 -26 -33 -23 -39 3 -6 2 -8 -2 -3 -10 9 -56 -32 -49 -44 3 -5 -3 -6 -12 -2
-11 4 -15 3 -10 -5 3 -6 1 -14 -5 -18 -8 -5 -9 -3 -4 7 5 8 4 11 -1 6 -5 -5
-9 -14 -9 -20 0 -7 -6 -13 -12 -13 -30 -3 -33 -4 -33 -13 0 -7 17 -8 38 -2 1
1 5 1 8 0 3 0 12 8 20 18 14 17 15 17 5 -2 -14 -30 -55 -65 -166 -140 -211
-145 -436 -329 -645 -531 -162 -156 -224 -205 -362 -287 -171 -102 -440 -195
-461 -160 -4 6 5 9 21 6 23 -3 24 -2 7 6 -19 9 -19 10 -1 10 11 1 17 3 14 6
-3 3 -19 2 -36 -1 -27 -5 -30 -9 -22 -25 6 -10 10 -21 10 -26 -1 -4 -8 5 -16
20 -9 16 -14 30 -12 31 2 1 43 15 92 31 113 36 333 145 451 222 133 88 222
162 400 333 225 215 267 250 469 385 177 119 313 227 371 297 36 44 48 48 34
11z m-2462 -75 c-2 -18 -4 -6 -4 27 0 33 2 48 4 33 2 -15 2 -42 0 -60z m-2837
38 c0 -2 -8 -10 -17 -17 -16 -13 -17 -12 -4 4 13 16 21 21 21 13z m581 -33
c13 -16 12 -17 -3 -4 -10 7 -18 15 -18 17 0 8 8 3 21 -13z m-1591 -23 c12 -16
19 -30 16 -30 -2 0 -14 14 -26 30 -12 17 -19 30 -16 30 2 0 14 -13 26 -30z
m1063 18 c-18 -9 -23 -20 -25 -52 l-1 -41 -4 40 c-4 39 13 66 41 64 6 0 1 -5
-11 -11z m108 -28 c35 -17 53 -28 40 -24 -33 9 -129 54 -115 54 6 0 40 -14 75
-30z m-555 -11 c3 -6 -5 -3 -20 6 -14 10 -26 19 -26 22 0 7 39 -17 46 -28z
m6841 1 c1 -22 1 -22 -4 -2 -2 12 -10 22 -16 22 -24 0 -155 -73 -151 -85 6
-16 -20 -36 -101 -78 -103 -53 -186 -88 -196 -81 -5 3 -35 -4 -65 -16 -94 -35
-69 -18 55 38 64 29 176 87 247 128 183 109 227 123 231 74z m-377 7 c0 -2
-19 -21 -42 -42 l-43 -40 40 43 c36 39 45 47 45 39z m-3223 -69 c-2 -13 -4 -5
-4 17 -1 22 1 32 4 23 2 -10 2 -28 0 -40z m-3782 -8 c27 -27 47 -50 44 -50 -3
0 -27 23 -54 50 -27 28 -47 50 -44 50 3 0 27 -22 54 -50z m7341 -64 c-40 -81
-121 -182 -193 -241 -30 -24 -16 -7 37 46 90 90 153 185 173 258 7 25 13 37
15 27 2 -10 -12 -50 -32 -90z m-6356 39 c0 -5 -5 -3 -10 5 -5 8 -10 20 -10 25
0 6 5 3 10 -5 5 -8 10 -19 10 -25z m729 2 l25 -32 -32 29 c-33 31 -37 36 -24
35 4 0 18 -14 31 -32z m2155 -263 c63 -156 183 -362 372 -637 56 -81 122 -187
147 -235 53 -104 112 -275 121 -352 5 -46 3 -42 -14 28 -48 205 -112 340 -277
579 -256 371 -405 665 -428 846 -3 23 5 2 19 -48 13 -49 40 -131 60 -181z
m3026 263 c0 -2 -12 -14 -27 -28 l-28 -24 24 28 c23 25 31 32 31 24z m-3573
-29 c-3 -8 -6 -5 -6 6 -1 11 2 17 5 13 3 -3 4 -12 1 -19z m-2302 -34 c15 -25
63 -82 108 -127 44 -45 67 -71 49 -59 -43 31 -144 145 -171 193 -31 55 -19 49
14 -7z m-799 -82 c11 -7 7 -7 -11 2 -32 15 -155 103 -155 111 0 2 33 -19 74
-48 40 -29 82 -58 92 -65z m6569 50 c-27 -27 -52 -47 -54 -45 -5 4 90 92 99
92 3 0 -17 -21 -45 -47z m-3458 6 c-3 -7 -5 -2 -5 12 0 14 2 19 5 13 2 -7 2
-19 0 -25z m-1546 -5 c13 -16 12 -17 -3 -4 -17 13 -22 21 -14 21 2 0 10 -8 17
-17z m4536 -19 c-3 -3 -12 -4 -19 -1 -8 3 -5 6 6 6 11 1 17 -2 13 -5z m-2980
-36 c-3 -7 -5 -2 -5 12 0 14 2 19 5 13 2 -7 2 -19 0 -25z m3014 15 c13 -16 12
-17 -3 -4 -10 7 -18 15 -18 17 0 8 8 3 21 -13z m-121 -7 c0 -2 -7 -7 -16 -10
-8 -3 -12 -2 -9 4 6 10 25 14 25 6z m-40 -20 c0 -2 -8 -10 -17 -17 -16 -13
-17 -12 -4 4 13 16 21 21 21 13z m177 -58 c-2 -13 -4 -3 -4 22 0 25 2 35 4 23
2 -13 2 -33 0 -45z m-3020 20 c-3 -7 -5 -2 -5 12 0 14 2 19 5 13 2 -7 2 -19 0
-25z m2959 -8 l2 -35 -5 33 c-5 37 -13 37 -85 1 -21 -11 -38 -17 -38 -14 0 9
95 54 110 52 10 -1 15 -14 16 -37z m461 34 c-3 -3 -12 -4 -19 -1 -8 3 -5 6 6
6 11 1 17 -2 13 -5z m-5240 -26 c-3 -8 -6 -5 -6 6 -1 11 2 17 5 13 3 -3 4 -12
1 -19z m-1137 -28 c30 -16 51 -29 45 -29 -5 0 -35 13 -65 29 -30 16 -50 29
-45 29 6 0 35 -13 65 -29z m691 -7 c13 -16 12 -17 -3 -4 -10 7 -18 15 -18 17
0 8 8 3 21 -13z m477 -25 c12 -21 19 -38 17 -38 -7 0 -45 63 -45 74 0 12 1 10
28 -36z m1799 10 c-3 -7 -5 -2 -5 12 0 14 2 19 5 13 2 -7 2 -19 0 -25z m-2337
-1 c0 -2 -10 -12 -22 -23 l-23 -19 19 23 c18 21 26 27 26 19z m5260 -64 c-28
-64 -92 -144 -132 -166 -22 -12 -26 -13 -13 -3 73 58 153 173 156 225 0 10 3
11 5 4 3 -7 -4 -33 -16 -60z m-5800 47 c8 -5 11 -10 5 -10 -5 0 -17 5 -25 10
-8 5 -10 10 -5 10 6 0 17 -5 25 -10z m2887 -22 c-3 -8 -6 -5 -6 6 -1 11 2 17
5 13 3 -3 4 -12 1 -19z m-2304 -15 c-18 -3 -23 -12 -24 -36 -1 -25 -3 -27 -6
-9 -7 35 4 52 29 51 l23 -2 -22 -4z m100 0 c-7 -2 -19 -2 -25 0 -7 3 -2 5 12
5 14 0 19 -2 13 -5z m-1018 -10 c-22 -3 -45 -9 -52 -15 -8 -6 -13 -6 -13 -1 0
18 13 23 59 21 l46 -1 -40 -4z m3243 -58 c0 -16 -2 -15 -8 5 -4 14 -8 34 -8
45 0 16 2 15 8 -5 4 -14 8 -34 8 -45z m-2953 34 c92 -7 90 -7 -30 -3 -71 3
-150 9 -175 14 -36 7 -29 8 30 3 41 -3 120 -9 175 -14z m6651 12 c-15 -24
-296 -192 -296 -177 0 3 19 15 43 27 54 28 183 106 222 136 33 25 39 28 31 14z
m-5445 -28 c13 -17 13 -17 -6 -3 -11 8 -22 16 -24 17 -2 2 0 3 6 3 6 0 17 -8
24 -17z m-1500 -46 c23 -28 26 -36 10 -22 -26 23 -71 82 -54 72 6 -4 26 -26
44 -50z m6170 20 c-10 -9 -11 -8 -5 6 3 10 9 15 12 12 3 -3 0 -11 -7 -18z
m-4664 -30 c-18 -18 -34 -31 -36 -30 -6 4 54 70 61 66 3 -1 -8 -18 -25 -36z
m-587 -2 c0 -5 -5 -3 -10 5 -5 8 -10 20 -10 25 0 6 5 3 10 -5 5 -8 10 -19 10
-25z m2337 -17 c-3 -7 -5 -2 -5 12 0 14 2 19 5 13 2 -7 2 -19 0 -25z m-1682
-5 c-11 -3 -27 -10 -35 -17 -13 -10 -13 -9 -1 7 7 9 23 16 35 16 20 -1 20 -2
1 -6z m-1510 -23 c10 -11 16 -20 13 -20 -3 0 -13 9 -23 20 -10 11 -16 20 -13
20 3 0 13 -9 23 -20z m972 -107 c30 -29 90 -76 134 -104 43 -28 79 -54 79 -56
0 -5 -8 -1 -95 56 -74 48 -195 162 -215 202 -7 14 -1 10 16 -11 15 -19 52 -58
81 -87z m430 60 c-3 -10 -5 -2 -5 17 0 19 2 27 5 18 2 -10 2 -26 0 -35z m1793
-43 l-11 -25 6 25 c2 14 6 41 7 60 l1 35 4 -35 c2 -20 -1 -47 -7 -60z m2939
46 c-2 -2 -13 8 -23 22 l-19 27 24 -22 c12 -12 21 -24 18 -27z m-5894 -94 c-4
-4 -176 83 -200 102 -11 9 30 -10 92 -42 61 -31 110 -58 108 -60z m5833 51
c-1 -37 -1 -37 -5 -6 -4 28 -8 32 -41 36 l-37 4 43 1 42 2 -2 -37z m969 21
c14 -38 -80 -159 -173 -222 -31 -21 -36 -23 -14 -6 62 49 156 151 170 183 22
54 6 56 -131 20 -180 -47 -272 -66 -342 -73 -44 -4 -27 1 58 19 66 13 179 40
250 59 147 40 173 43 182 20z m-1094 -11 c-7 -2 -19 -2 -25 0 -7 3 -2 5 12 5
14 0 19 -2 13 -5z m547 -18 c-14 -8 -29 -14 -35 -14 -5 0 1 6 15 14 14 8 30
14 35 14 6 0 -1 -6 -15 -14z m-4900 -119 c24 -17 24 -17 -5 0 -37 21 -83 63
-97 88 -5 10 10 -1 33 -26 24 -24 55 -52 69 -62z m1577 64 c-33 -47 -168 -125
-297 -170 -36 -13 -69 -26 -73 -30 -4 -4 17 -26 48 -49 30 -23 55 -44 55 -46
0 -3 -31 18 -70 47 l-70 52 73 24 c120 38 269 116 308 160 36 41 51 48 26 12z
m3253 26 c0 -2 -7 -7 -16 -10 -8 -3 -12 -2 -9 4 6 10 25 14 25 6z m-4912 -144
c-15 -13 -28 -31 -29 -40 0 -12 -2 -13 -6 -4 -3 8 7 26 21 41 l26 27 -41 40
c-22 21 -45 47 -50 56 -5 9 17 -9 49 -40 l58 -57 -28 -23z m4533 96 c-30 -47
-50 -68 -101 -109 -47 -38 -140 -95 -140 -86 0 3 25 20 55 37 70 40 155 118
180 164 11 19 21 33 23 31 2 -2 -5 -19 -17 -37z m-5741 16 c23 -9 39 -18 37
-20 -2 -3 -24 4 -48 15 -54 24 -45 27 11 5z m5287 -41 c-3 -10 -5 -2 -5 17 0
19 2 27 5 18 2 -10 2 -26 0 -35z m871 20 c-10 -2 -28 -2 -40 0 -13 2 -5 4 17
4 22 1 32 -1 23 -4z m-5998 -33 c20 -6 21 -8 5 -8 -11 0 -29 3 -40 8 -25 11 1
11 35 0z m63 -17 c-7 -2 -19 -2 -25 0 -7 3 -2 5 12 5 14 0 19 -2 13 -5z m44
-9 c-3 -3 -12 -4 -19 -1 -8 3 -5 6 6 6 11 1 17 -2 13 -5z m5503 2 c0 -2 -8
-10 -17 -17 -16 -13 -17 -12 -4 4 13 16 21 21 21 13z m-5006 -35 c-2 -3 -12 3
-22 13 -16 17 -16 18 5 5 12 -7 20 -15 17 -18z m-24 -4 c0 -2 -10 -12 -22 -23
l-23 -19 19 23 c18 21 26 27 26 19z m4990 0 c0 -2 -10 -12 -22 -23 l-23 -19
19 23 c18 21 26 27 26 19z m-5522 -14 c-38 -2 -98 -2 -135 0 -38 2 -7 3 67 3
74 0 105 -1 68 -3z m1090 0 c-24 -3 -43 -12 -53 -26 -8 -12 -15 -16 -15 -10 0
24 32 43 68 41 l37 -1 -37 -4z m-1299 -7 c-2 -2 -26 -6 -53 -9 -30 -3 -43 -1
-35 4 13 8 97 13 88 5z m817 -17 c-22 -5 -46 -15 -55 -22 -12 -10 -13 -9 -7 1
10 17 44 31 76 30 17 0 13 -3 -14 -9z m-870 -40 c29 -32 29 -32 2 -15 -14 10
-29 24 -32 32 -8 20 -3 18 30 -17z m6549 15 c-24 -19 -111 -64 -122 -64 -8 0
127 78 137 79 3 0 -4 -7 -15 -15z m-5226 -79 c17 -19 19 -24 6 -15 -29 21 -44
43 -44 60 1 13 1 13 6 0 3 -8 17 -28 32 -45z m4402 28 c13 -16 12 -17 -3 -4
-10 7 -18 15 -18 17 0 8 8 3 21 -13z m-5576 -61 c-4 -5 -103 46 -109 56 -3 5
21 -5 54 -22 32 -17 57 -32 55 -34z m731 -42 c43 -37 99 -66 167 -85 43 -13
45 -15 14 -11 -106 13 -257 129 -257 198 0 7 9 -6 21 -29 11 -24 36 -56 55
-73z m5524 80 c-8 -5 -19 -10 -25 -10 -5 0 -3 5 5 10 8 5 20 10 25 10 6 0 3
-5 -5 -10z m-1560 -3 c0 -2 -17 -19 -37 -38 l-38 -34 34 38 c33 34 41 42 41
34z m733 -4 c-7 -2 -19 -2 -25 0 -7 3 -2 5 12 5 14 0 19 -2 13 -5z m102 -4
c11 -17 2 -18 -19 -3 -17 12 -17 14 -4 14 9 0 20 -5 23 -11z m-528 -5 c-3 -3
-12 -4 -19 -1 -8 3 -5 6 6 6 11 1 17 -2 13 -5z m-3877 -29 c13 -14 21 -25 18
-25 -2 0 -15 11 -28 25 -13 14 -21 25 -18 25 2 0 15 -11 28 -25z m165 -23 c-5
-6 -74 18 -80 27 -2 5 15 1 40 -8 24 -8 42 -17 40 -19z m-1215 6 c10 -6 7 -7
-10 -2 -14 3 -32 11 -40 16 -10 6 -7 7 10 2 14 -3 32 -11 40 -16z m2470 -3
c13 -14 21 -25 18 -25 -2 0 -15 11 -28 25 -13 14 -21 25 -18 25 2 0 15 -11 28
-25z m2424 5 c25 -10 46 -25 46 -31 0 -8 -6 -7 -17 3 -18 15 -61 33 -98 41
-19 4 -18 5 2 6 12 0 42 -8 67 -19z m1151 10 c-11 -5 -27 -9 -35 -9 -9 0 -8 4
5 9 11 5 27 9 35 9 9 0 8 -4 -5 -9z m-604 -68 c-36 -71 -184 -180 -281 -207
-14 -3 17 15 69 40 107 53 190 127 212 189 7 20 15 33 17 27 2 -5 -6 -27 -17
-49z m546 52 c-3 -3 -12 -4 -19 -1 -8 3 -5 6 6 6 11 1 17 -2 13 -5z m-5907
-19 c19 -7 28 -13 20 -13 -8 0 -31 6 -50 13 -19 7 -28 13 -20 13 8 0 31 -6 50
-13z m1193 8 c-7 -2 -21 -2 -30 0 -10 3 -4 5 12 5 17 0 24 -2 18 -5z m4662 -3
c-11 -5 -31 -8 -45 -8 -23 0 -22 1 5 8 42 11 65 11 40 0z m-1405 -3 c0 -2 -12
-14 -27 -28 l-28 -24 24 28 c23 25 31 32 31 24z m477 -39 c-3 -7 -5 -2 -5 12
0 14 2 19 5 13 2 -7 2 -19 0 -25z m846 25 c-7 -2 -19 -2 -25 0 -7 3 -2 5 12 5
14 0 19 -2 13 -5z m-5690 -10 c-7 -2 -21 -2 -30 0 -10 3 -4 5 12 5 17 0 24 -2
18 -5z m5644 1 c-3 -3 -12 -4 -19 -1 -8 3 -5 6 6 6 11 1 17 -2 13 -5z m-5579
-11 c-10 -2 -26 -2 -35 0 -10 3 -2 5 17 5 19 0 27 -2 18 -5z m949 1 c-3 -3
-12 -4 -19 -1 -8 3 -5 6 6 6 11 1 17 -2 13 -5z m123 -12 c-13 -9 -33 -25 -44
-36 -11 -11 -17 -13 -14 -5 4 14 65 60 77 58 3 0 -5 -8 -19 -17z m3614 -43
c-32 -33 -96 -73 -134 -83 -14 -4 2 7 35 24 71 37 115 76 116 104 1 19 2 19 6
3 3 -12 -6 -30 -23 -48z m-4606 44 c-10 -2 -26 -2 -35 0 -10 3 -2 5 17 5 19 0
27 -2 18 -5z m65 -10 c-7 -2 -21 -2 -30 0 -10 3 -4 5 12 5 17 0 24 -2 18 -5z
m5761 -33 c82 -10 103 -25 81 -57 -9 -12 -30 -32 -48 -44 -24 -17 -21 -12 12
19 31 29 41 46 34 53 -9 9 -53 15 -288 39 -90 9 -89 9 25 3 63 -3 146 -9 184
-13z m-5796 -7 c-26 -2 -71 -2 -100 0 -29 2 -8 3 47 3 55 0 79 -1 53 -3z
m-185 -10 c-13 -2 -35 -2 -50 0 -16 2 -5 4 22 4 28 0 40 -2 28 -4z m754 1 c-3
-3 -12 -4 -19 -1 -8 3 -5 6 6 6 11 1 17 -2 13 -5z m-838 -79 c14 -17 9 -14
-11 7 -21 20 -38 43 -38 50 0 7 6 4 12 -7 6 -11 22 -34 37 -50z m812 16 c-13
-3 -28 -15 -32 -26 -5 -14 -8 -15 -8 -4 -1 21 19 39 44 38 17 -1 17 -2 -4 -8z
m455 -41 c27 -11 42 -19 34 -19 -24 -1 -94 34 -110 55 -14 18 -14 19 7 1 11
-10 43 -27 69 -37z m211 -6 c-3 -3 -12 -4 -19 -1 -8 3 -5 6 6 6 11 1 17 -2 13
-5z m2252 -49 c0 -5 -6 1 -14 15 -8 14 -14 30 -14 35 0 6 6 -1 14 -15 8 -14
14 -29 14 -35z m2331 51 c0 -15 -175 -97 -204 -96 -6 1 25 15 69 33 44 18 91
40 105 50 26 18 30 20 30 13z m-5205 -86 c20 -12 62 -31 93 -41 32 -10 49 -18
40 -18 -60 -2 -208 90 -208 130 0 8 9 0 19 -17 10 -17 36 -41 56 -54z m560 70
c-16 -4 -43 -8 -60 -8 -29 1 -29 1 5 8 19 4 46 7 60 8 22 0 22 -1 -5 -8z
m3252 -6 c-3 -3 -12 -4 -19 -1 -8 3 -5 6 6 6 11 1 17 -2 13 -5z m63 -19 c28
-14 50 -58 36 -72 -3 -4 -6 3 -6 14 0 23 -24 47 -60 62 -14 5 -19 10 -12 10 7
1 26 -6 42 -14z m-4574 -33 c-5 -4 -66 26 -66 33 0 3 16 -3 35 -12 19 -9 33
-18 31 -21z m1151 2 c-3 -3 -12 -4 -19 -1 -8 3 -5 6 6 6 11 1 17 -2 13 -5z
m3750 0 c-3 -3 -12 -4 -19 -1 -8 3 -5 6 6 6 11 1 17 -2 13 -5z m82 -15 c26 -9
31 -16 31 -42 0 -18 -9 -45 -19 -61 -20 -30 -96 -86 -115 -86 -6 1 5 9 25 20
57 30 101 86 97 123 -3 29 -8 33 -48 44 -25 6 -36 12 -24 12 12 1 35 -4 53
-10z m-4919 -9 c8 -5 11 -10 5 -10 -5 0 -17 5 -25 10 -8 5 -10 10 -5 10 6 0
17 -5 25 -10z m5590 -15 c-19 -7 -44 -13 -55 -13 -11 0 -2 5 20 13 53 17 80
17 35 0z m-5513 -11 c-3 -3 -12 -4 -19 -1 -8 3 -5 6 6 6 11 1 17 -2 13 -5z
m92 -20 c9 -8 -45 -2 -64 6 -14 7 -8 8 20 3 22 -3 42 -7 44 -9z m4346 -22
l-28 -27 24 31 c13 17 26 30 28 27 3 -2 -8 -16 -24 -31z m988 31 c-7 -2 -19
-2 -25 0 -7 3 -2 5 12 5 14 0 19 -2 13 -5z m-86 -10 c-20 -2 -52 -2 -70 0 -17
2 0 4 38 4 39 0 53 -2 32 -4z m-5204 -10 c-7 -2 -19 -2 -25 0 -7 3 -2 5 12 5
14 0 19 -2 13 -5z m620 0 c-7 -2 -21 -2 -30 0 -10 3 -4 5 12 5 17 0 24 -2 18
-5z m65 -10 c-10 -2 -26 -2 -35 0 -10 3 -2 5 17 5 19 0 27 -2 18 -5z m55 -10
c-7 -2 -19 -2 -25 0 -7 3 -2 5 12 5 14 0 19 -2 13 -5z m221 -9 c3 -8 2 -12 -4
-9 -6 3 -10 10 -10 16 0 14 7 11 14 -7z m3416 12 c0 -2 -8 -10 -17 -17 -16
-13 -17 -12 -4 4 13 16 21 21 21 13z m737 -22 c-3 -3 -12 -4 -19 -1 -8 3 -5 6
6 6 11 1 17 -2 13 -5z m-5164 -11 c-13 -2 -33 -2 -45 0 -13 2 -3 4 22 4 25 0
35 -2 23 -4z m85 0 c-10 -2 -28 -2 -40 0 -13 2 -5 4 17 4 22 1 32 -1 23 -4z
m549 1 c-3 -3 -12 -4 -19 -1 -8 3 -5 6 6 6 11 1 17 -2 13 -5z m3653 -4 c-8 -5
-22 -9 -30 -9 -10 0 -8 3 5 9 27 12 43 12 25 0z m998 3 c-15 -2 -42 -2 -60 0
-18 2 -6 4 27 4 33 0 48 -2 33 -4z m115 -11 c16 -17 15 -20 -16 -48 -26 -23
-28 -24 -9 -3 29 33 28 45 -5 57 -23 9 -25 11 -7 11 11 1 28 -7 37 -17z
m-5490 1 c-29 -6 -29 -20 -1 -52 22 -26 22 -26 -6 1 -33 30 -30 59 6 57 l23
-2 -22 -4z m804 1 c-3 -3 -12 -4 -19 -1 -8 3 -5 6 6 6 11 1 17 -2 13 -5z m72
-7 c-2 -1 -13 -9 -24 -17 -19 -14 -19 -14 -6 3 7 9 18 17 24 17 6 0 8 -1 6 -3z
m3434 -4 c-7 -2 -19 -2 -25 0 -7 3 -2 5 12 5 14 0 19 -2 13 -5z m-65 -10 c-10
-2 -28 -2 -40 0 -13 2 -5 4 17 4 22 1 32 -1 23 -4z m-23 -63 c10 -11 16 -20
13 -20 -3 0 -13 9 -23 20 -10 11 -16 20 -13 20 3 0 13 -9 23 -20z m495 10 c-8
-5 -19 -10 -25 -10 -5 0 -3 5 5 10 8 5 20 10 25 10 6 0 3 -5 -5 -10z m-4584
-58 c-5 -4 -106 46 -106 53 0 3 25 -7 55 -22 30 -15 53 -29 51 -31z m4541 42
c-3 -3 -12 -4 -19 -1 -8 3 -5 6 6 6 11 1 17 -2 13 -5z m738 -4 c-3 -5 -12 -10
-18 -10 -7 0 -6 4 3 10 19 12 23 12 15 0z m-4641 -16 c3 -8 2 -12 -4 -9 -6 3
-10 10 -10 16 0 14 7 11 14 -7z m3863 10 c-3 -3 -12 -4 -19 -1 -8 3 -5 6 6 6
11 1 17 -2 13 -5z m-44 -11 c-7 -2 -19 -2 -25 0 -7 3 -2 5 12 5 14 0 19 -2 13
-5z m762 -8 c-17 -7 -48 -16 -70 -19 -31 -5 -26 -2 20 13 71 22 92 25 50 6z
m-5155 -29 c25 -8 36 -15 25 -15 -11 0 -33 6 -50 14 -39 18 -31 18 25 1z
m4015 -24 l-28 -27 24 31 c13 17 26 30 28 27 3 -2 -8 -16 -24 -31z m1018 21
c-7 -2 -19 -2 -25 0 -7 3 -2 5 12 5 14 0 19 -2 13 -5z m-645 -19 c22 -15 27
-38 16 -69 -6 -15 -73 -55 -91 -55 -4 1 6 8 22 17 75 39 88 84 33 108 -18 8
-26 14 -18 15 9 0 26 -7 38 -16z m555 9 c-18 -2 -48 -2 -65 0 -18 2 -4 4 32 4
36 0 50 -2 33 -4z m-4866 -9 c-3 -3 -12 -4 -19 -1 -8 3 -5 6 6 6 11 1 17 -2
13 -5z m71 -11 c-10 -2 -26 -2 -35 0 -10 3 -2 5 17 5 19 0 27 -2 18 -5z m3129
-70 c-2 -16 -4 -3 -4 27 0 30 2 43 4 28 2 -16 2 -40 0 -55z m-2990 60 c-20 -2
-52 -2 -70 0 -17 2 0 4 38 4 39 0 53 -2 32 -4z m4586 -20 c-7 -2 -19 -2 -25 0
-7 3 -2 5 12 5 14 0 19 -2 13 -5z m104 -24 c23 -20 14 -36 -34 -67 -48 -30
-120 -58 -129 -50 -2 3 15 10 38 17 53 16 128 62 128 79 0 6 -1 12 -2 12 -2 0
-21 7 -43 16 -39 15 -39 15 -6 9 19 -3 40 -10 48 -16z m-4681 -15 c-38 -13
-71 -22 -73 -20 -5 5 107 44 127 44 8 0 -16 -10 -54 -24z m3459 6 c10 -11 16
-20 13 -20 -3 0 -13 9 -23 20 -10 11 -16 20 -13 20 3 0 13 -9 23 -20z m-468
-132 c-2 -18 -4 -4 -4 32 0 36 2 50 4 33 2 -18 2 -48 0 -65z m998 72 c-11 -5
-29 -8 -40 -8 -16 0 -15 2 5 8 34 11 60 11 35 0z m-87 -17 c-10 -2 -28 -2 -40
0 -13 2 -5 4 17 4 22 1 32 -1 23 -4z m-3938 -29 c0 -2 -9 0 -20 6 -11 6 -20
13 -20 16 0 2 9 0 20 -6 11 -6 20 -13 20 -16z m3847 20 c-3 -3 -12 -4 -19 -1
-8 3 -5 6 6 6 11 1 17 -2 13 -5z m-3787 -39 c19 -7 28 -14 20 -14 -8 0 -28 6
-45 14 -39 17 -21 18 25 0z m4183 8 c-7 -2 -19 -2 -25 0 -7 3 -2 5 12 5 14 0
19 -2 13 -5z m290 0 c-7 -2 -21 -2 -30 0 -10 3 -4 5 12 5 17 0 24 -2 18 -5z
m-705 -19 c12 -8 22 -24 22 -35 0 -21 -33 -59 -52 -59 -7 0 -4 6 7 12 44 25
47 61 8 82 -16 8 -23 15 -18 16 6 0 21 -7 33 -16z m595 9 c-29 -2 -78 -2 -110
0 -32 2 -8 3 52 3 61 0 87 -1 58 -3z m-4290 -20 c-7 -2 -19 -2 -25 0 -7 3 -2
5 12 5 14 0 19 -2 13 -5z m240 0 c-7 -2 -19 -2 -25 0 -7 3 -2 5 12 5 14 0 19
-2 13 -5z m3944 -43 c3 0 4 -2 1 -5 -6 -7 -118 33 -133 47 -5 5 20 -2 58 -17
37 -14 70 -25 74 -25z m-4034 33 c-24 -2 -62 -2 -85 0 -24 2 -5 4 42 4 47 0
66 -2 43 -4z m2794 -35 c-3 -8 -6 -5 -6 6 -1 11 2 17 5 13 3 -3 4 -12 1 -19z
m-2707 2 c-8 -5 -19 -10 -25 -10 -5 0 -3 5 5 10 8 5 20 10 25 10 6 0 3 -5 -5
-10z m2631 -143 c-57 -228 -244 -478 -477 -636 -102 -70 -86 -53 42 42 164
123 279 258 359 421 47 94 84 219 87 290 l1 41 4 -38 c2 -21 -5 -75 -16 -120z
m-2689 113 c-14 -12 -21 -25 -16 -32 5 -10 4 -10 -7 0 -12 11 -10 16 11 32 33
25 42 25 12 0z m4038 -15 c0 -5 -49 -31 -87 -46 -41 -15 -21 0 34 26 57 28 53
26 53 20z m-622 -12 c-10 -2 -28 -2 -40 0 -13 2 -5 4 17 4 22 1 32 -1 23 -4z
m-3248 -8 c0 -2 -10 -9 -22 -15 -22 -11 -22 -10 -4 4 21 17 26 19 26 11z m-72
-32 c-10 -2 -28 -2 -40 0 -13 2 -5 4 17 4 22 1 32 -1 23 -4z m3750 -20 c-10
-2 -26 -2 -35 0 -10 3 -2 5 17 5 19 0 27 -2 18 -5z m-4208 -163 c8 -5 11 -10
5 -10 -5 0 -17 5 -25 10 -8 5 -10 10 -5 10 6 0 17 -5 25 -10z m100 -40 c8 -5
11 -10 5 -10 -5 0 -17 5 -25 10 -8 5 -10 10 -5 10 6 0 17 -5 25 -10z m80 -32
c10 -6 7 -7 -10 -2 -14 3 -32 11 -40 16 -10 6 -7 7 10 2 14 -3 32 -11 40 -16z
m-566 -64 c17 -7 24 -13 16 -13 -8 0 -33 9 -55 20 -43 20 -11 15 39 -7z m111
-40 c24 -11 25 -13 5 -8 -14 4 -38 13 -55 20 -24 11 -25 13 -5 8 14 -4 39 -13
55 -20z m95 -34 c8 -5 11 -10 5 -10 -5 0 -17 5 -25 10 -8 5 -10 10 -5 10 6 0
17 -5 25 -10z m47 -16 c-3 -3 -12 -4 -19 -1 -8 3 -5 6 6 6 11 1 17 -2 13 -5z
m290 0 c-3 -3 -12 -4 -19 -1 -8 3 -5 6 6 6 11 1 17 -2 13 -5z m-250 -10 c-3
-3 -12 -4 -19 -1 -8 3 -5 6 6 6 11 1 17 -2 13 -5z m40 -10 c-3 -3 -12 -4 -19
-1 -8 3 -5 6 6 6 11 1 17 -2 13 -5z m46 -11 c-7 -2 -19 -2 -25 0 -7 3 -2 5 12
5 14 0 19 -2 13 -5z m1072 -269 c9 -15 12 -23 6 -20 -11 7 -35 46 -28 46 3 0
12 -12 22 -26z m178 -21 c-7 -2 -19 -2 -25 0 -7 3 -2 5 12 5 14 0 19 -2 13 -5z
m1237 -13 c-35 -24 -54 -31 -30 -11 14 11 30 21 35 21 6 0 3 -5 -5 -10z
m-1140 -21 c17 -13 18 -17 5 -10 -33 17 -51 31 -40 31 6 0 21 -10 35 -21z
m1080 -14 c0 -6 -137 -75 -147 -75 -6 1 134 77 145 80 1 0 2 -2 2 -5z m-1141
-16 c48 -17 56 -41 30 -91 -96 -189 -339 -446 -519 -551 -50 -29 -129 -95 -93
-77 20 9 23 7 32 -27 13 -49 61 -194 100 -303 34 -95 39 -154 15 -189 -14 -19
-23 -22 -51 -18 -45 8 -97 41 -129 82 -24 31 -25 37 -15 92 17 97 25 253 13
253 -13 0 -16 -16 -42 -195 -27 -190 -59 -283 -113 -333 -43 -41 -98 -8 -147
88 l-19 38 37 49 c59 74 78 111 111 210 30 89 41 183 21 183 -5 0 -10 -9 -10
-20 0 -29 -59 -208 -87 -263 -46 -93 -161 -177 -241 -177 -26 0 -35 5 -42 25
-14 37 7 80 82 166 112 131 134 167 193 314 37 92 49 102 196 168 212 96 311
191 467 447 38 63 80 121 93 127 30 16 76 16 118 2z m191 -24 c-14 -8 -29 -14
-35 -14 -5 0 1 6 15 14 14 8 30 14 35 14 6 0 -1 -6 -15 -14z m-93 -17 c-3 -8
-6 -5 -6 6 -1 11 2 17 5 13 3 -3 4 -12 1 -19z m40 -4 c-3 -3 -12 -4 -19 -1 -8
3 -5 6 6 6 11 1 17 -2 13 -5z m752 -191 c-48 -136 -171 -333 -280 -448 -39
-41 -47 -59 -36 -85 15 -36 127 -360 141 -409 18 -63 20 -104 6 -131 -13 -24
-51 -14 -118 29 -71 46 -75 57 -73 202 1 77 -2 130 -8 133 -12 8 -18 -27 -26
-154 -10 -154 -37 -246 -91 -317 -22 -29 -27 -31 -52 -22 -30 12 -70 55 -108
116 l-25 42 38 35 c22 19 51 60 66 90 45 91 84 276 59 276 -4 0 -18 -42 -31
-92 -42 -170 -90 -246 -183 -292 -63 -31 -111 -33 -138 -6 -37 37 -29 56 80
180 80 92 100 123 140 225 46 116 55 128 147 190 138 95 218 200 274 361 17
49 34 93 39 97 6 7 182 65 202 66 4 1 -6 -38 -23 -86z"/>
<path d="M1376 8103 c-6 -14 -5 -15 5 -6 7 7 10 15 7 18 -3 3 -9 -2 -12 -12z"/>
<path d="M926 7814 c-4 -9 -3 -21 2 -26 12 -12 23 15 12 31 -5 9 -9 8 -14 -5z"/>
<path d="M1240 7322 c6 -13 14 -21 18 -18 3 4 -2 14 -12 24 -18 16 -18 16 -6
-6z"/>
<path d="M7766 7143 c-6 -14 -5 -15 5 -6 7 7 10 15 7 18 -3 3 -9 -2 -12 -12z"/>
<path d="M5354 7009 c-10 -17 28 -49 61 -52 42 -3 40 15 -5 41 -45 25 -47 26
-56 11z"/>
<path d="M761 7037 c2 -1 15 -11 29 -22 l25 -20 -19 23 c-11 12 -24 22 -29 22
-6 0 -8 -1 -6 -3z"/>
<path d="M1160 6721 c0 -9 30 -24 36 -18 2 1 -6 8 -16 15 -11 7 -20 8 -20 3z"/>
<path d="M2066 6835 c4 -8 11 -15 16 -15 6 0 5 6 -2 15 -7 8 -14 15 -16 15 -2
0 -1 -7 2 -15z"/>
<path d="M8149 6863 c-34 -42 -40 -55 -10 -24 17 18 30 35 28 37 -2 2 -10 -4
-18 -13z"/>
<path d="M865 6290 c-3 -5 0 -10 7 -11 7 0 20 -2 28 -4 8 -2 26 -7 40 -10 l25
-6 -25 14 c-38 22 -68 29 -75 17z"/>
<path d="M1010 6230 c8 -5 20 -10 25 -10 6 0 3 5 -5 10 -8 5 -19 10 -25 10 -5
0 -3 -5 5 -10z"/>
<path d="M1060 6212 c8 -5 26 -13 40 -16 17 -5 20 -4 10 2 -8 5 -26 13 -40 16
-17 5 -20 4 -10 -2z"/>
<path d="M6169 5493 c-13 -16 -12 -17 4 -4 16 13 21 21 13 21 -2 0 -10 -8 -17
-17z"/>
<path d="M8026 6065 c-11 -8 -16 -15 -10 -15 5 0 18 7 28 15 11 8 16 15 10 15
-5 0 -18 -7 -28 -15z"/>
<path d="M7950 6020 c-9 -6 -10 -10 -3 -10 6 0 15 5 18 10 8 12 4 12 -15 0z"/>
<path d="M7810 5950 c-19 -11 -30 -19 -25 -19 6 0 26 8 45 19 19 11 31 19 25
19 -5 0 -26 -8 -45 -19z"/>
<path d="M3001 2414 c0 -11 3 -14 6 -6 3 7 2 16 -1 19 -3 4 -6 -2 -5 -13z"/>
<path d="M5365 7726 c-44 -17 -75 -48 -75 -77 0 -24 38 -50 59 -40 30 16 165
23 226 12 33 -6 87 -24 119 -41 33 -17 61 -29 62 -27 8 8 -57 97 -88 120 -73
56 -223 82 -303 53z"/>
<path d="M4910 7709 c-61 -12 -145 -55 -170 -87 -27 -33 -14 -39 54 -22 46 11
266 10 331 -1 17 -3 21 2 23 33 3 29 -2 43 -22 63 -22 22 -33 25 -98 24 -40
-1 -93 -5 -118 -10z"/>
</g>
</svg>
