<?xml version="1.0" encoding="UTF-8"?>
<svg version="1.1" xmlns="http://www.w3.org/2000/svg" width="128" height="128">
<path d="M0 0 C1.08925781 0.49757813 2.17851563 0.99515625 3.30078125 1.5078125 C10.06627577 4.86324808 15.48911216 8.8013055 20.87890625 14.08203125 C22.87547409 16.06717759 22.87547409 16.06717759 25.21484375 17.07421875 C27 18 27 18 28 21 C28.61875 21.598125 29.2375 22.19625 29.875 22.8125 C33.96925338 27.02717259 35.11862459 31.33401521 36 37 C36.66 37.99 37.32 38.98 38 40 C39.27912005 44.04201303 39.12591738 48.06687515 39.09765625 52.265625 C39.09553383 53.45572174 39.09553383 53.45572174 39.09336853 54.66986084 C39.08778415 57.19661272 39.07523454 59.72327504 39.0625 62.25 C39.05748298 63.96614455 39.05292043 65.68229049 39.04882812 67.3984375 C39.03781984 71.59899269 39.02056596 75.79948117 39 80 C38.34 80 37.68 80 37 80 C36.71125 81.03125 36.4225 82.0625 36.125 83.125 C35.75069604 84.41686854 35.37569852 85.70853633 35 87 C34.71125 88.010625 34.4225 89.02125 34.125 90.0625 C32.62911387 93.96842489 30.86767948 98.06616026 27 100 C26.71125 100.639375 26.4225 101.27875 26.125 101.9375 C25 104 25 104 23.23046875 104.8671875 C20.46711277 106.27064325 18.49945155 108.12414539 16.1875 110.1875 C0.5048511 123.22133689 -17.24131531 125.35442597 -37 124 C-41.63229542 123.38340392 -45.75715092 121.94848232 -50 120 C-51.093125 119.50242187 -52.18625 119.00484375 -53.3125 118.4921875 C-60.06931076 115.12942289 -65.49181938 111.19604206 -70.87890625 105.91796875 C-72.87547409 103.93282241 -72.87547409 103.93282241 -75.21484375 102.92578125 C-77 102 -77 102 -78 99 C-78.61875 98.401875 -79.2375 97.80375 -79.875 97.1875 C-83.96925338 92.97282741 -85.11862459 88.66598479 -86 83 C-86.66 82.01 -87.32 81.02 -88 80 C-89.89735246 74.55166016 -89.26375448 68.39347124 -89.29516602 62.68554688 C-89.3066092 61.24273817 -89.32693774 59.79996918 -89.35668945 58.35742188 C-89.53092492 49.89288764 -89.09409476 42.49614031 -85.96166992 34.484375 C-85.05829239 32.15059238 -84.49696663 29.94660497 -84 27.5 C-82.92611321 23.74139624 -81.87606954 22.51656085 -79 20 C-78.67 19.29875 -78.34 18.5975 -78 17.875 C-77 16 -77 16 -75.171875 15.109375 C-72.69736739 13.84541788 -71.2080599 12.34089214 -69.25 10.375 C-65.13700521 6.63715399 -60.87187863 4.09218931 -55.9375 1.625 C-55.27717773 1.29161621 -54.61685547 0.95823242 -53.93652344 0.61474609 C-38.54075313 -6.8086231 -15.51549603 -7.39666807 0 0 Z " fill="#F8CE50" transform="translate(89,4)"/>
<path d="M0 0 C2.31 0 4.62 0 7 0 C7 3.63 7 7.26 7 11 C6.26136719 11.20753906 5.52273437 11.41507813 4.76171875 11.62890625 C-6.10036719 14.92755751 -16.34626126 19.6228846 -22 30 C-22 30.66 -22 31.32 -22 32 C-18.43322251 31.40952677 -16.58466641 30.04264332 -13.9375 27.625 C-13.26589844 27.01914062 -12.59429687 26.41328125 -11.90234375 25.7890625 C-10.01930994 24.06815844 -10.01930994 24.06815844 -8.50390625 22.3359375 C-3.83763117 18.19083081 5.11526997 19.53314412 11.03369141 19.80322266 C16.67491159 20.36776493 21.36571744 22.91047829 26 26 C26.99 25.01 27.98 24.02 29 23 C34.91626631 30.19908133 38 35.55405345 38 45 C42.62 45 47.24 45 52 45 C51.77183594 43.95199219 51.54367188 42.90398438 51.30859375 41.82421875 C51.01782209 40.44539828 50.72747986 39.06648721 50.4375 37.6875 C50.28603516 36.99720703 50.13457031 36.30691406 49.97851562 35.59570312 C49.28238431 32.24455934 48.89844691 30.30465928 50 27 C54.87334986 37.18973152 55.9238477 47.79155363 55 59 C54.34 59.99 53.68 60.98 53 62 C51.94723777 65.26910377 51.02670273 68.56489192 50.09765625 71.87109375 C49.07143155 74.79638194 48.00708787 76.67269298 46 79 C42.15473231 78.44113414 39.697698 77.39647748 36.53125 75.1640625 C35.30341797 74.30941406 35.30341797 74.30941406 34.05078125 73.4375 C33.20902344 72.839375 32.36726563 72.24125 31.5 71.625 C22.43311041 64.53764073 22.43311041 64.53764073 11.75 61.375 C7.0851735 61.0851735 7.0851735 61.0851735 6 60 C-1.7837753 60.12554476 -7.59158516 62.59626878 -14 67 C-14.66 67.99 -15.32 68.98 -16 70 C-17.485 70.495 -17.485 70.495 -19 71 C-22.51576401 77.32537028 -22.6538381 84.94545915 -23 92 C-29.2341746 90.76391366 -33.45351279 86.04692411 -37 81 C-37 80.34 -37 79.68 -37 79 C-37.66 79 -38.32 79 -39 79 C-40.04892238 77.36368108 -41.04906703 75.69514137 -42 74 C-42.33 73.67 -42.66 73.34 -43 73 C-43.28318854 70.15912448 -43.44850213 67.31834785 -43.62109375 64.46875 C-43.74613281 63.6540625 -43.87117188 62.839375 -44 62 C-44.66 61.67 -45.32 61.34 -46 61 C-47.64176774 57.71646451 -47.18454039 54.10480362 -47.1875 50.5 C-47.19974609 49.71496094 -47.21199219 48.92992187 -47.22460938 48.12109375 C-47.22986254 46.07936274 -47.1222018 44.03807749 -47 42 C-46.34 41.34 -45.68 40.68 -45 40 C-45 41.65 -45 43.3 -45 45 C-40.05 45 -35.1 45 -30 45 C-30.103125 43.72125 -30.20625 42.4425 -30.3125 41.125 C-30.25720326 34.06913652 -27.57734245 28.62022669 -22.65234375 23.61328125 C-20.93448964 22.0871635 -19.19475932 20.58529978 -17.43359375 19.109375 C-14.72250213 16.75947215 -12.53547719 14.24388605 -10.3515625 11.41015625 C-7.92905325 8.88262492 -5.71434591 8.03247027 -2.25 7.875 C-1.5075 7.91625 -0.765 7.9575 0 8 C0 5.36 0 2.72 0 0 Z " fill="#8886A9" transform="translate(57,10)"/>
<path d="M0 0 C1.08925781 0.49757813 2.17851563 0.99515625 3.30078125 1.5078125 C10.06627577 4.86324808 15.48911216 8.8013055 20.87890625 14.08203125 C22.87547409 16.06717759 22.87547409 16.06717759 25.21484375 17.07421875 C27 18 27 18 28 21 C28.61875 21.598125 29.2375 22.19625 29.875 22.8125 C33.96925338 27.02717259 35.11862459 31.33401521 36 37 C36.66 37.99 37.32 38.98 38 40 C39.27912005 44.04201303 39.12591738 48.06687515 39.09765625 52.265625 C39.09553383 53.45572174 39.09553383 53.45572174 39.09336853 54.66986084 C39.08778415 57.19661272 39.07523454 59.72327504 39.0625 62.25 C39.05748298 63.96614455 39.05292043 65.68229049 39.04882812 67.3984375 C39.03781984 71.59899269 39.02056596 75.79948117 39 80 C38.34 80 37.68 80 37 80 C36.71125 81.03125 36.4225 82.0625 36.125 83.125 C35.75069604 84.41686854 35.37569852 85.70853633 35 87 C34.71125 88.010625 34.4225 89.02125 34.125 90.0625 C32.62911387 93.96842489 30.86767948 98.06616026 27 100 C26.71125 100.639375 26.4225 101.27875 26.125 101.9375 C25 104 25 104 23.23046875 104.8671875 C20.46711277 106.27064325 18.49945155 108.12414539 16.1875 110.1875 C0.5048511 123.22133689 -17.24131531 125.35442597 -37 124 C-41.63229542 123.38340392 -45.75715092 121.94848232 -50 120 C-51.093125 119.50242187 -52.18625 119.00484375 -53.3125 118.4921875 C-60.06931076 115.12942289 -65.49181938 111.19604206 -70.87890625 105.91796875 C-72.87547409 103.93282241 -72.87547409 103.93282241 -75.21484375 102.92578125 C-77 102 -77 102 -78 99 C-78.61875 98.401875 -79.2375 97.80375 -79.875 97.1875 C-83.96925338 92.97282741 -85.11862459 88.66598479 -86 83 C-86.66 82.01 -87.32 81.02 -88 80 C-89.89735246 74.55166016 -89.26375448 68.39347124 -89.29516602 62.68554688 C-89.3066092 61.24273817 -89.32693774 59.79996918 -89.35668945 58.35742188 C-89.53092492 49.89288764 -89.09409476 42.49614031 -85.96166992 34.484375 C-85.05829239 32.15059238 -84.49696663 29.94660497 -84 27.5 C-82.92611321 23.74139624 -81.87606954 22.51656085 -79 20 C-78.67 19.29875 -78.34 18.5975 -78 17.875 C-77 16 -77 16 -75.171875 15.109375 C-72.69736739 13.84541788 -71.2080599 12.34089214 -69.25 10.375 C-65.13700521 6.63715399 -60.87187863 4.09218931 -55.9375 1.625 C-55.27717773 1.29161621 -54.61685547 0.95823242 -53.93652344 0.61474609 C-38.54075313 -6.8086231 -15.51549603 -7.39666807 0 0 Z M-61 6 C-61 6.66 -61 7.32 -61 8 C-62.10214844 8.37125 -62.10214844 8.37125 -63.2265625 8.75 C-73.66685208 13.45548263 -81.19179914 26.12547783 -85.2734375 36.3828125 C-89.61442301 52.01969579 -88.09160956 70.16991638 -80.9375 84.5625 C-71.84257588 100.48338395 -58.56029396 109.59164719 -41.08691406 114.54199219 C-28.57209141 117.28857704 -15.52138223 115.09052846 -4 110 C-3.01644531 109.5771875 -2.03289062 109.154375 -1.01953125 108.71875 C14.09761448 101.38405588 22.3429133 88.13068596 28.01953125 72.8828125 C32.84467363 58.6957405 29.99967563 42.41566814 24 29 C22.21992786 25.81134903 20.21623728 22.89979962 18 20 C17.47535156 19.31035156 16.95070313 18.62070312 16.41015625 17.91015625 C7.91948888 7.50159696 -5.5281829 -0.51048705 -19 -2 C-34.40724096 -2.86412092 -47.32599375 -1.65381323 -61 6 Z " fill="#D2812B" transform="translate(89,4)"/>
<path d="M0 0 C0.33 0.33 0.66 0.66 1 1 C1.59167969 1 2.18335937 1 2.79296875 1 C11.78445236 1 17.98446633 6.01113056 25 11 C25.99386719 11.68707031 26.98773438 12.37414062 28.01171875 13.08203125 C29.6847569 14.24216719 31.35238821 15.41018523 33.01171875 16.58984375 C34.65463694 17.75505684 36.32410494 18.88273662 38 20 C37.34 21.65 36.68 23.3 36 25 C29.73281683 24.42321254 24.34232897 22.46410768 18.5 20.1875 C17.58863281 19.84396484 16.67726562 19.50042969 15.73828125 19.14648438 C11.72230277 17.60210015 7.86777931 16.02800781 4.15234375 13.84765625 C1.43233662 12.25340176 -0.94384322 11.17112516 -3.9375 10.25 C-4.70964844 10.00765625 -5.48179688 9.7653125 -6.27734375 9.515625 C-6.84582031 9.34546875 -7.41429688 9.1753125 -8 9 C-5.79508901 13.53231704 -3.6735615 15.16723078 1 17 C4.2366963 17.70758326 4.2366963 17.70758326 7 18 C7 18.66 7 19.32 7 20 C9.31 20.66 11.62 21.32 14 22 C14 21.34 14 20.68 14 20 C17.29597643 20.29963422 19.50718398 20.65776665 22.25 22.5625 C24.66672311 25.92865005 25.18917798 28.94588988 26 33 C14.71217403 40.96787715 2.59225258 43.35788082 -11 42 C-17.19496537 40.67019068 -24.01277461 39.07230275 -29 35 C-30.65595131 27.09051829 -29.46397922 17.85273064 -25 11 C-24.01 10.67 -23.02 10.34 -22 10 C-21.278125 9.236875 -20.55625 8.47375 -19.8125 7.6875 C-14.31899376 2.43814959 -7.64293986 -0.41313188 0 0 Z " fill="#F2F3F7" transform="translate(63,69)"/>
<path d="M0 0 C14.42892941 0.63657042 25.54474014 6.87982001 35.40234375 17.1640625 C42.58023864 25.41249916 45 34.14497619 45 45 C40.38 45 35.76 45 31 45 C30.62875 43.205625 30.2575 41.41125 29.875 39.5625 C28.36889539 33.42894353 25.86038855 28.94729406 22 24 C21.01 24.99 20.02 25.98 19 27 C18.31292969 26.65066406 17.62585938 26.30132812 16.91796875 25.94140625 C16.01691406 25.48636719 15.11585937 25.03132813 14.1875 24.5625 C13.29417969 24.11003906 12.40085938 23.65757813 11.48046875 23.19140625 C7.91890746 21.48073508 5.23853172 20.87746158 1.33203125 20.90234375 C0.43935547 20.90556641 -0.45332031 20.90878906 -1.37304688 20.91210938 C-2.30181641 20.92048828 -3.23058594 20.92886719 -4.1875 20.9375 C-5.12787109 20.94201172 -6.06824219 20.94652344 -7.03710938 20.95117188 C-9.35813712 20.96295374 -11.67903644 20.97940442 -14 21 C-14.33 21.99 -14.66 22.98 -15 24 C-16.7421875 25.5 -16.7421875 25.5 -18.875 27 C-20.97013996 28.4843796 -22.85105213 29.8431561 -24.62109375 31.70703125 C-25.30365234 32.34705078 -25.30365234 32.34705078 -26 33 C-28.1875 32.6875 -28.1875 32.6875 -30 32 C-27.05412066 22.89455476 -20.14908557 18.30271718 -12 14 C-8.13631188 12.505058 -4.18211995 11 0 11 C0 7.37 0 3.74 0 0 Z " fill="#EEF0F5" transform="translate(64,10)"/>
<path d="M0 0 C0.33 0 0.66 0 1 0 C1.03738281 1.07378906 1.07476562 2.14757813 1.11328125 3.25390625 C1.17899112 4.6901362 1.24543668 6.12633262 1.3125 7.5625 C1.33505859 8.26697266 1.35761719 8.97144531 1.38085938 9.69726562 C1.63932679 14.79612287 2.85503883 18.37791833 5 23 C5.165 24.2375 5.33 25.475 5.5 26.75 C6.03221155 30.20937508 6.48658293 30.81441994 9 33 C9 33.99 9 34.98 9 36 C9.66 36 10.32 36 11 36 C12.11445895 37.37616567 13.16729865 38.80257474 14.1875 40.25 C17.40752692 44.54562415 20.17006546 46.73288787 25 49 C25 49.66 25 50.32 25 51 C41.17982614 57.56658392 55.44868924 59.84244132 72 53 C74.47191999 51.7885955 76.68892786 50.50488419 79 49 C77.99840737 43.76042859 77.99840737 43.76042859 75.6875 39.0625 C73.51565784 37.69504383 71.5249602 37.34121084 69 37 C68.505 37.99 68.505 37.99 68 39 C64.535 37.515 64.535 37.515 61 36 C61 35.34 61 34.68 61 34 C60.175 34.103125 59.35 34.20625 58.5 34.3125 C53.88785817 33.90070162 50.43588718 32.11607907 47 29 C46.26953125 26.828125 46.26953125 26.828125 46 25 C50.32724253 25.65564281 54.02641825 27.25656289 58 29 C68.21011021 33.41014734 78.34390376 37.76701272 89 41 C89 43 89 43 86.5 45.625 C85.675 46.40875 84.85 47.1925 84 48 C84.66 48 85.32 48 86 48 C87 51 87 51 85.94140625 53.98828125 C82.48943697 59.34334828 76.74684557 60.74516129 71 63 C70.21625 63.34417969 69.4325 63.68835938 68.625 64.04296875 C54.76842972 69.31341423 38.25090753 66.4997125 25.15234375 60.75 C16.71855756 56.57462343 8.08140147 50.05669575 3 42 C3 41.01 3 40.02 3 39 C4.65 39 6.3 39 8 39 C6.8123348 34.59875871 6.8123348 34.59875871 4 31.12109375 C-2.56823152 24.15517634 -0.19327332 9.06237143 0 0 Z " fill="#F7CD50" transform="translate(9,53)"/>
<path d="M0 0 C0 2.64 0 5.28 0 8 C-0.556875 8.11214844 -1.11375 8.22429688 -1.6875 8.33984375 C-8.02083775 9.97666921 -11.02104645 12.71079204 -15.08984375 17.7421875 C-16.84237983 19.81369232 -18.53468483 21.31010192 -20.6875 22.9375 C-26.24797004 27.54365596 -28.9990813 34.04937161 -29.8125 41.125 C-29.874375 42.40375 -29.93625 43.6825 -30 45 C-34.95 45 -39.9 45 -45 45 C-45.69344767 34.42492303 -42.68236205 26.13306973 -35.8203125 18.05078125 C-35.21960937 17.37402344 -34.61890625 16.69726562 -34 16 C-33.52304687 15.39542969 -33.04609375 14.79085938 -32.5546875 14.16796875 C-24.86202716 5.2468993 -11.53937238 -0.22191101 0 0 Z " fill="#F6F7F4" transform="translate(57,10)"/>
<path d="M0 0 C8.09301349 2.27616004 15.27394462 10.30675406 20 17 C23.74679309 24.42546267 25 30.65769932 25 39 C20.38 39 15.76 39 11 39 C10.62875 37.205625 10.2575 35.41125 9.875 33.5625 C8.39496586 27.59279293 6.16299358 22.59204863 2 18 C1.34 18 0.68 18 0 18 C-0.02578125 17.38511719 -0.0515625 16.77023438 -0.078125 16.13671875 C-0.2814648 11.00745409 -0.2814648 11.00745409 -3.0625 6.9375 C-4.0215625 6.4734375 -4.0215625 6.4734375 -5 6 C-2.36 5.67 0.28 5.34 3 5 C2.2575 4.319375 2.2575 4.319375 1.5 3.625 C0 2 0 2 0 0 Z " fill="#EBEEEF" transform="translate(84,16)"/>
<path d="M0 0 C2.31 0 4.62 0 7 0 C7 3.63 7 7.26 7 11 C6.26136719 11.20753906 5.52273437 11.41507813 4.76171875 11.62890625 C-6.10036719 14.92755751 -16.34626126 19.6228846 -22 30 C-22 30.66 -22 31.32 -22 32 C-17.75177626 31.52797514 -15.80010291 29.03344482 -13 26 C-12.34 26.33 -11.68 26.66 -11 27 C-11.50789063 27.46148437 -12.01578125 27.92296875 -12.5390625 28.3984375 C-18.95211303 34.47522321 -23.128392 41.11205098 -27 49 C-27.33 48.34 -27.66 47.68 -28 47 C-28.68707031 47.5053125 -29.37414062 48.010625 -30.08203125 48.53125 C-31.43361328 49.50578125 -31.43361328 49.50578125 -32.8125 50.5 C-34.15248047 51.47453125 -34.15248047 51.47453125 -35.51953125 52.46875 C-38 54 -38 54 -41 54 C-40.34 53.34 -39.68 52.68 -39 52 C-40.98 51.67 -42.96 51.34 -45 51 C-45.33 52.32 -45.66 53.64 -46 55 C-46 51.7 -46 48.4 -46 45 C-40.72 45 -35.44 45 -30 45 C-30.1546875 43.081875 -30.1546875 43.081875 -30.3125 41.125 C-30.25720326 34.06913652 -27.57734245 28.62022669 -22.65234375 23.61328125 C-20.93448964 22.0871635 -19.19475932 20.58529978 -17.43359375 19.109375 C-14.72250213 16.75947215 -12.53547719 14.24388605 -10.3515625 11.41015625 C-7.92905325 8.88262492 -5.71434591 8.03247027 -2.25 7.875 C-1.5075 7.91625 -0.765 7.9575 0 8 C0 5.36 0 2.72 0 0 Z " fill="#2E70A2" transform="translate(57,10)"/>
<path d="M0 0 C0.33 1.32 0.66 2.64 1 4 C0.34 4 -0.32 4 -1 4 C-1 5.32 -1 6.64 -1 8 C0.32 7.67 1.64 7.34 3 7 C4.03056215 10.84925199 3.8971722 13.02478159 2.5625 16.75 C-0.57795588 27.42466883 -0.33647216 41.40080309 3 52 C4.47143001 54.34004838 6.05191834 56.00196753 8 58 C8.8125 60.375 8.8125 60.375 9 62 C5.94329543 62.98251218 4.0104552 63.18787787 1 62 C-8.61483191 49.00772006 -8.57582838 30.25849208 -6.3125 14.9375 C-5.14916997 9.51994848 -2.72347921 4.79207602 0 0 Z " fill="#FCD04C" transform="translate(9,30)"/>
<path d="M0 0 C1.20003662 -0.00056396 2.40007324 -0.00112793 3.63647461 -0.00170898 C12.86866258 0.11318326 20.48115468 1.20932734 28.8125 5.375 C28.8125 6.035 28.8125 6.695 28.8125 7.375 C30.27083358 9.00014468 30.27083358 9.00014468 31.8125 10.375 C31.4825 11.035 31.1525 11.695 30.8125 12.375 C29.60013672 11.76011719 29.60013672 11.76011719 28.36328125 11.1328125 C27.29464844 10.59398437 26.22601563 10.05515625 25.125 9.5 C24.06925781 8.96632813 23.01351562 8.43265625 21.92578125 7.8828125 C8.89361636 1.57112411 -7.91878921 1.35385162 -21.765625 5.44140625 C-25.1628023 6.7509633 -28.09235271 8.46522827 -31.1875 10.375 C-32.1775 10.375 -33.1675 10.375 -34.1875 10.375 C-34.1875 11.035 -34.1875 11.695 -34.1875 12.375 C-35.59186326 13.29982459 -36.99830295 14.22162372 -38.4140625 15.12890625 C-47.77106949 21.70354332 -55.14102754 32.40114758 -58.1875 43.375 C-59.12561077 49.23819228 -59.34105566 54.94494089 -59.3125 60.875 C-59.31636719 61.67808594 -59.32023437 62.48117188 -59.32421875 63.30859375 C-59.31593919 68.41708356 -58.9181148 73.3186817 -58.1875 78.375 C-59.1775 78.87 -59.1775 78.87 -60.1875 79.375 C-63.49631778 74.41177332 -62.55651536 68.76953469 -62.5625 62.9375 C-62.58699219 61.71611328 -62.61148438 60.49472656 -62.63671875 59.23632812 C-62.66025049 51.86697233 -61.78754675 45.82152639 -59.14697266 38.92749023 C-58.2613138 36.57136725 -57.68936317 34.33559399 -57.1875 31.875 C-56.11361321 28.11639624 -55.06356954 26.89156085 -52.1875 24.375 C-51.8575 23.67375 -51.5275 22.9725 -51.1875 22.25 C-50.1875 20.375 -50.1875 20.375 -48.359375 19.484375 C-45.88486739 18.22041788 -44.3955599 16.71589214 -42.4375 14.75 C-38.32450521 11.01215399 -34.05937863 8.46718931 -29.125 6 C-28.46467773 5.66661621 -27.80435547 5.33323242 -27.12402344 4.98974609 C-18.11098277 0.64393376 -9.91094322 -0.01161732 0 0 Z " fill="#DE9229" transform="translate(62.1875,-0.375)"/>
<path d="M0 0 C1 2 2 4 3 6 C4.64363134 6.72159424 6.31050386 7.39351421 8 8 C8 9.32 8 10.64 8 12 C7.34 12 6.68 12 6 12 C6.185625 12.804375 6.37125 13.60875 6.5625 14.4375 C7.10488586 18.85407058 6.60068359 22.59498699 6 27 C1.05 27 -3.9 27 -9 27 C-9.68961863 16.48331591 -6.54833228 8.18541535 0 0 Z " fill="#EDEDEA" transform="translate(21,28)"/>
<path d="M0 0 C7.06319064 6.27839168 9.41587037 12.65392593 10 22 C14.62 22 19.24 22 24 22 C23.65775391 20.42798828 23.65775391 20.42798828 23.30859375 18.82421875 C23.01782209 17.44539828 22.72747986 16.06648721 22.4375 14.6875 C22.28603516 13.99720703 22.13457031 13.30691406 21.97851562 12.59570312 C21.28238431 9.24455934 20.89844691 7.30465928 22 4 C26.79910224 14.0344865 28.24654259 24.94196091 27 36 C25.48046875 37.94140625 25.48046875 37.94140625 24 39 C23.34 37.68 22.68 36.36 22 35 C22.66 35 23.32 35 24 35 C24 32.69 24 30.38 24 28 C23.40832031 28.10699219 22.81664063 28.21398437 22.20703125 28.32421875 C15.73946625 29.30543171 15.73946625 29.30543171 12.125 27.8125 C8.51855904 24.736418 7.00049674 22.18843098 5.625 17.6875 C3.74617239 11.68514021 0.47479444 7.34471321 -4 3 C-3.34 3 -2.68 3 -2 3 C-1.34 2.01 -0.68 1.02 0 0 Z " fill="#246193" transform="translate(85,33)"/>
<path d="M0 0 C0.33 0 0.66 0 1 0 C1.03738281 1.07378906 1.07476562 2.14757813 1.11328125 3.25390625 C1.17899112 4.6901362 1.24543668 6.12633262 1.3125 7.5625 C1.33505859 8.26697266 1.35761719 8.97144531 1.38085938 9.69726562 C1.63932679 14.79612287 2.85503883 18.37791833 5 23 C5.165 24.2375 5.33 25.475 5.5 26.75 C6.03221155 30.20937508 6.48658293 30.81441994 9 33 C9 33.99 9 34.98 9 36 C9.66 36 10.32 36 11 36 C12.11445895 37.37616567 13.16729865 38.80257474 14.1875 40.25 C17.40752692 44.54562415 20.17006546 46.73288787 25 49 C25 49.66 25 50.32 25 51 C26.65 51.66 28.3 52.32 30 53 C29.01 53.66 28.02 54.32 27 55 C26.484375 54.401875 25.96875 53.80375 25.4375 53.1875 C21.78543121 49.91000237 17.60435452 48.53478484 13 47 C13 47.99 13 48.98 13 50 C13.66 50.33 14.32 50.66 15 51 C14.34 51.66 13.68 52.32 13 53 C4.85580614 45.05662188 4.85580614 45.05662188 3 42 C3 41.01 3 40.02 3 39 C4.65 39 6.3 39 8 39 C6.8123348 34.59875871 6.8123348 34.59875871 4 31.12109375 C-2.56823152 24.15517634 -0.19327332 9.06237143 0 0 Z " fill="#EBBF54" transform="translate(9,53)"/>
<path d="M0 0 C7.12920254 0.407383 13.73519774 1.32971181 20 5 C20.33 5.99 20.66 6.98 21 8 C22.49985609 9.66710346 22.49985609 9.66710346 24 11 C19.00985684 13.13863278 17.00822878 12.76215457 12 11 C8.0088869 10.52413652 4.01123169 10.24664531 0 10 C0 6.7 0 3.4 0 0 Z " fill="#F9FAF6" transform="translate(64,10)"/>
<path d="M0 0 C4.32724253 0.65564281 8.02641825 2.25656289 12 4 C22.21011021 8.41014734 32.34390376 12.76701272 43 16 C43 16.66 43 17.32 43 18 C38.52941176 22 38.52941176 22 36 22 C37 20 38 18 39 16 C37.35 16 35.7 16 34 16 C34.185625 16.763125 34.37125 17.52625 34.5625 18.3125 C35 21 35 21 34 24 C33.79246094 23.30132812 33.58492187 22.60265625 33.37109375 21.8828125 C31.82602989 16.63367128 31.82602989 16.63367128 28.17578125 12.890625 C26.0533716 12.2720609 26.0533716 12.2720609 23 12 C22.67 12.66 22.34 13.32 22 14 C19.69 13.01 17.38 12.02 15 11 C15 10.34 15 9.68 15 9 C14.175 9.103125 13.35 9.20625 12.5 9.3125 C7.88785817 8.90070162 4.43588718 7.11607907 1 4 C0.26953125 1.828125 0.26953125 1.828125 0 0 Z " fill="#ADAEB7" transform="translate(55,78)"/>
<path d="M0 0 C2.31 0 4.62 0 7 0 C7 3.63 7 7.26 7 11 C6.19175781 11.25394531 5.38351563 11.50789063 4.55078125 11.76953125 C3.48214844 12.11371094 2.41351563 12.45789062 1.3125 12.8125 C0.25675781 13.14894531 -0.79898438 13.48539063 -1.88671875 13.83203125 C-5.0140724 14.89041442 -5.0140724 14.89041442 -7.64453125 16.63671875 C-10 18 -10 18 -14 18 C-13.75536626 14.69744449 -12.74684329 13.74081575 -10.375 11.3125 C-7.11994346 8.73689701 -4.14350932 8.24861056 0 8 C0 5.36 0 2.72 0 0 Z " fill="#B2B8C0" transform="translate(57,10)"/>
<path d="M0 0 C3.6875 0.375 3.6875 0.375 6.1875 2.4375 C8.14390324 6.26878967 7.82641039 8.2749226 6.6875 12.375 C5.5 14.375 5.5 14.375 3.6875 15.375 C0.5 15.0625 0.5 15.0625 -2.3125 14.375 C-2.3125 13.715 -2.3125 13.055 -2.3125 12.375 C-2.9725 12.375 -3.6325 12.375 -4.3125 12.375 C-5.56084144 9.87831711 -5.26405125 8.56170849 -4.9375 5.8125 C-4.84726562 5.00683594 -4.75703125 4.20117188 -4.6640625 3.37109375 C-4.07372446 0.01928554 -3.56673815 0.40378168 0 0 Z " fill="#BFBDD7" transform="translate(62.3125,44.625)"/>
<path d="M0 0 C1.65 0 3.3 0 5 0 C5 3.70834957 4.08549732 4.40027201 1.8125 7.25 C-2.83124705 13.61155592 -4.83728532 20.52517969 -7 28 C-8.23782051 24.01146724 -7.31067965 21.93203895 -6 18 C-6.27640014 15.7124024 -6.27640014 15.7124024 -7 14 C-7.99 14 -8.98 14 -10 14 C-10 12.68 -10 11.36 -10 10 C-9.34 10 -8.68 10 -8 10 C-8 8.35 -8 6.7 -8 5 C-5.64561267 3.57055055 -4.51967567 2.91338739 -1.75 3.375 C-1.1725 3.58125 -0.595 3.7875 0 4 C0 2.68 0 1.36 0 0 Z " fill="#E4C254" transform="translate(18,24)"/>
<path d="M0 0 C5.81066974 0.24211124 8.65225287 1.93139971 13.1328125 5.56640625 C15.28637425 7.21987311 17.41283536 8.19151105 20 9 C19.67 9.99 19.34 10.98 19 12 C14.92219815 13.03798592 12.42494443 13.65262906 8.53515625 11.87109375 C1.65777724 7.42364768 1.65777724 7.42364768 0 3 C0 2.01 0 1.02 0 0 Z " fill="#FCD549" transform="translate(22,100)"/>
<path d="M0 0 C3.29597643 0.29963422 5.50718398 0.65776665 8.25 2.5625 C10.66672311 5.92865005 11.18917798 8.94588988 12 13 C10.02 14.32 8.04 15.64 6 17 C4.71785861 14.53434347 3.62043721 12.07584711 2.5625 9.5 C1.26217217 6.58726566 0.03245331 4.41958727 -2 2 C-1.34 1.67 -0.68 1.34 0 1 C0 0.67 0 0.34 0 0 Z " fill="#CACBD3" transform="translate(77,89)"/>
<path d="M0 0 C0.99 0.66 1.98 1.32 3 2 C1.9171875 2.7734375 1.9171875 2.7734375 0.8125 3.5625 C-2.4172616 6.36162672 -5.13717498 9.11563392 -7 13 C-6.9615158 16.33793923 -6.9615158 16.33793923 -6 19 C-8.64738916 20.4606285 -9.89448334 21 -13 21 C-13.83693254 18.1434039 -14.24389072 16.5775822 -13.06640625 13.7890625 C-9.29471749 8.36174933 -5.188289 4.09532457 0 0 Z " fill="#227EB2" transform="translate(42,27)"/>
<path d="M0 0 C3.88658173 0.420171 7.25206849 1.41906481 10.875 2.8125 C18.08014773 5.53311595 25.51681187 7.23483141 33 9 C32.67 9.99 32.34 10.98 32 12 C25.67120763 11.42386166 20.21241962 9.41918477 14.3125 7.125 C13.37599609 6.77308594 12.43949219 6.42117187 11.47460938 6.05859375 C7.18594201 4.4116965 3.6015625 2.90540147 0 0 Z " fill="#D0CFD8" transform="translate(67,82)"/>
<path d="M0 0 C0.66 0 1.32 0 2 0 C2.02934144 3.97915085 2.04691265 7.95827337 2.0625 11.9375 C2.07087891 13.05447266 2.07925781 14.17144531 2.08789062 15.32226562 C2.13967446 32.98055201 2.13967446 32.98055201 -2 40 C-2.66 39.67 -3.32 39.34 -4 39 C-3.55611056 34.91621716 -2.81478097 31.3519041 -1.46875 27.46875 C0.29089961 21.71191738 0.34310752 16.35192477 0.1875 10.375 C0.17396484 9.37082031 0.16042969 8.36664063 0.14648438 7.33203125 C0.11156152 4.88743136 0.06252748 2.44402266 0 0 Z " fill="#DB9226" transform="translate(118,48)"/>
<path d="M0 0 C2.09350689 3.4019487 2.17942163 6.05272412 2 10 C-0.97 9.505 -0.97 9.505 -4 9 C-4 10.32 -4 11.64 -4 13 C-5.65 13 -7.3 13 -9 13 C-9 9.26130751 -8.09514308 8.63449295 -5.625 5.9375 C-4.99851562 5.24527344 -4.37203125 4.55304687 -3.7265625 3.83984375 C-2.50602933 2.53923035 -1.26120903 1.26120903 0 0 Z " fill="#FDD14A" transform="translate(22,15)"/>
<path d="M0 0 C2.31 0 4.62 0 7 0 C7 3.63 7 7.26 7 11 C6.34 11 5.68 11 5 11 C5 10.34 5 9.68 5 9 C3.35 9 1.7 9 0 9 C0 6.03 0 3.06 0 0 Z " fill="#4B85AA" transform="translate(57,10)"/>
<path d="M0 0 C0.33 0 0.66 0 1 0 C1 3.63 1 7.26 1 11 C3.31 11 5.62 11 8 11 C7.26829419 12.34345985 6.51394247 13.67460584 5.75 15 C5.12351562 16.11375 5.12351562 16.11375 4.484375 17.25 C3.74960938 18.11625 3.74960938 18.11625 3 19 C1.68 19 0.36 19 -1 19 C-1.02690104 16.20826945 -1.04679053 13.41679652 -1.0625 10.625 C-1.07087891 9.8309375 -1.07925781 9.036875 -1.08789062 8.21875 C-1.11328125 2.2265625 -1.11328125 2.2265625 0 0 Z " fill="#4F7488" transform="translate(11,50)"/>
<path d="M0 0 C0.66 0.33 1.32 0.66 2 1 C1.49210937 1.49628906 0.98421875 1.99257813 0.4609375 2.50390625 C-3.43748413 6.35122497 -7.17952345 10.23948244 -10.67578125 14.45703125 C-12.04602475 16.05362766 -13.49521608 17.53051892 -15 19 C-15.66 18.67 -16.32 18.34 -17 18 C-17 15.36 -17 12.72 -17 10 C-16.34 10 -15.68 10 -15 10 C-15 10.66 -15 11.32 -15 12 C-12.00847418 11.22520264 -12.00847418 11.22520264 -9 10 C-8.67 9.01 -8.34 8.02 -8 7 C-6.15234375 5.17578125 -6.15234375 5.17578125 -3.9375 3.3125 C-2.83728516 2.37857422 -2.83728516 2.37857422 -1.71484375 1.42578125 C-1.14894531 0.95527344 -0.58304688 0.48476563 0 0 Z " fill="#3D6796" transform="translate(44,36)"/>
<path d="M0 0 C-1.19610588 3.58831763 -2.66969845 4.41437386 -5.93188477 6.15698242 C-12.54097771 8.85102066 -20.55351624 8.12935018 -27.5625 8.0625 C-28.93245117 8.05573242 -28.93245117 8.05573242 -30.33007812 8.04882812 C-32.55345738 8.0371874 -34.77669121 8.02083851 -37 8 C-37 7.67 -37 7.34 -37 7 C-35.87464844 6.98582031 -34.74929687 6.97164063 -33.58984375 6.95703125 C-22.07541589 6.65455066 -10.51103385 0 0 0 Z " fill="#DA9229" transform="translate(89,112)"/>
<path d="M0 0 C6.45218752 5.7352778 9.28142005 11.69546981 9.921875 20.3125 C9.96054688 21.1478125 9.96054688 21.1478125 10 22 C9.67 22 9.34 22 9 22 C8.7525 21.154375 8.505 20.30875 8.25 19.4375 C7.27279365 16.75018253 6.32162512 14.72354187 4.875 12.3125 C3 9 3 9 3 6 C0.69 5.34 -1.62 4.68 -4 4 C-2.68 2.68 -1.36 1.36 0 0 Z " fill="#4380AB" transform="translate(85,33)"/>
<path d="M0 0 C4.72502701 0.63242669 8.90570197 1.91813563 13.375 3.5625 C14.01566406 3.79646484 14.65632813 4.03042969 15.31640625 4.27148438 C16.8793161 4.84299619 18.43990727 5.42084229 20 6 C20 6.66 20 7.32 20 8 C15.52941176 12 15.52941176 12 13 12 C14 10 15 8 16 6 C14.35 6 12.7 6 11 6 C11.2784375 7.1446875 11.2784375 7.1446875 11.5625 8.3125 C12 11 12 11 11 14 C10.79246094 13.31292969 10.58492187 12.62585938 10.37109375 11.91796875 C8.73611297 6.64926738 8.73611297 6.64926738 5.17578125 2.66796875 C3.06647085 1.7516556 3.06647085 1.7516556 0 1 C0 0.67 0 0.34 0 0 Z " fill="#797C8B" transform="translate(78,88)"/>
<path d="M0 0 C3.96 0 7.92 0 12 0 C12.33 0.99 12.66 1.98 13 3 C11.98679687 3.06058594 10.97359375 3.12117188 9.9296875 3.18359375 C8.57811486 3.26806704 7.22655291 3.35271157 5.875 3.4375 C4.87726562 3.49647461 4.87726562 3.49647461 3.859375 3.55664062 C-0.15018817 3.812152 -4.04994196 4.26782413 -8 5 C-7.34 4.67 -6.68 4.34 -6 4 C-6 3.34 -6 2.68 -6 2 C-2.25 0.875 -2.25 0.875 0 2 C0 1.34 0 0.68 0 0 Z " fill="#A4A0C1" transform="translate(58,30)"/>
<path d="M0 0 C3.63559661 3.43361902 6.36113346 6.7973607 9 11 C8.01 11 7.02 11 6 11 C5.67 10.67 5.34 10.34 5 10 C3.32457024 10.28604898 1.65614657 10.61781233 0 11 C-0.99 9.68 -1.98 8.36 -3 7 C-2 5 -2 5 1 4 C0.67 2.68 0.34 1.36 0 0 Z " fill="#D88B2F" transform="translate(10,92)"/>
<path d="M0 0 C5.66770536 5.66770536 6.09517541 15.47979399 6.13623047 23.05712891 C6.12003669 26.03889628 6.07154207 29.01908028 6 32 C5.67 32 5.34 32 5 32 C4.95101562 31.23816406 4.90203125 30.47632812 4.8515625 29.69140625 C4.44689323 24.10278414 3.87379132 18.75586451 2.54296875 13.3125 C1.50993848 8.91283153 0.78186992 4.45000435 0 0 Z " fill="#849275" transform="translate(106,37)"/>
<path d="M0 0 C2 1 2 1 2 1 Z M-3 1 C0.37462715 1.54723683 2.08235 2.0549 5 4 C4.02433888 5.16959987 3.044375 6.33561177 2.0625 7.5 C1.51722656 8.1496875 0.97195312 8.799375 0.41015625 9.46875 C-0.05519531 9.9740625 -0.52054688 10.479375 -1 11 C-1.33 11 -1.66 11 -2 11 C-2.33 7.7 -2.66 4.4 -3 1 Z " fill="#F1CC50" transform="translate(26,14)"/>
<path d="M0 0 C1.134375 0.020625 2.26875 0.04125 3.4375 0.0625 C3.4375 1.0525 3.4375 2.0425 3.4375 3.0625 C2.4475 2.7325 1.4575 2.4025 0.4375 2.0625 C0.1075 3.0525 -0.2225 4.0425 -0.5625 5.0625 C-1.2225 5.0625 -1.8825 5.0625 -2.5625 5.0625 C-2.5625 7.3725 -2.5625 9.6825 -2.5625 12.0625 C-3.2225 12.0625 -3.8825 12.0625 -4.5625 12.0625 C-5.81084144 9.56581711 -5.51405125 8.24920849 -5.1875 5.5 C-5.09726562 4.69433594 -5.00703125 3.88867188 -4.9140625 3.05859375 C-4.29780008 -0.44040732 -3.77584981 0.06624298 0 0 Z " fill="#C2C0D9" transform="translate(62.5625,44.9375)"/>
<path d="M0 0 C2.475 0.495 2.475 0.495 5 1 C5 1.66 5 2.32 5 3 C5.804375 3.2475 6.60875 3.495 7.4375 3.75 C10 5 10 5 10.8125 7.125 C10.874375 7.74375 10.93625 8.3625 11 9 C6.5221629 7.75037104 3.35725691 6.25851406 0 3 C0 2.01 0 1.02 0 0 Z " fill="#C2C3CE" transform="translate(55,78)"/>
<path d="M0 0 C0.33 0 0.66 0 1 0 C1.05386629 2.12472576 1.09273071 4.24983652 1.125 6.375 C1.14820312 7.55835937 1.17140625 8.74171875 1.1953125 9.9609375 C1 13 1 13 -1 15 C-1.66 13.68 -2.32 12.36 -3 11 C-2.34 11 -1.68 11 -1 11 C-1 8.69 -1 6.38 -1 4 C-1.61488281 4.10699219 -2.22976562 4.21398438 -2.86328125 4.32421875 C-3.67152344 4.44410156 -4.47976562 4.56398438 -5.3125 4.6875 C-6.11300781 4.81511719 -6.91351563 4.94273438 -7.73828125 5.07421875 C-10 5 -10 5 -13 2 C-8.71 2.33 -4.42 2.66 0 3 C0 2.01 0 1.02 0 0 Z " fill="#266B8C" transform="translate(110,57)"/>
<path d="M0 0 C1.33333333 1.33333333 2.66666667 2.66666667 4 4 C2.35 4.33 0.7 4.66 -1 5 C-1 5.66 -1 6.32 -1 7 C-2.65 7 -4.3 7 -6 7 C-6.33 6.34 -6.66 5.68 -7 5 C-5.64703851 0.94111554 -4.27479763 0 0 0 Z " fill="#F4F6FB" transform="translate(51,26)"/>
<path d="M0 0 C0.33 0 0.66 0 1 0 C1 2.97 1 5.94 1 9 C-3.95 9 -8.9 9 -14 9 C-14 8.34 -14 7.68 -14 7 C-9.71 7 -5.42 7 -1 7 C-1 5.02 -1 3.04 -1 1 C-0.67 0.67 -0.34 0.34 0 0 Z " fill="#C4E5F9" transform="translate(26,46)"/>
<path d="M0 0 C0.33 0 0.66 0 1 0 C1.03738281 1.07378906 1.07476562 2.14757813 1.11328125 3.25390625 C1.17899112 4.6901362 1.24543668 6.12633262 1.3125 7.5625 C1.33505859 8.26697266 1.35761719 8.97144531 1.38085938 9.69726562 C1.63928163 14.79523195 2.86872997 18.37469056 5 23 C5.1875 26.4375 5.1875 26.4375 5 29 C0.09589472 24.09589472 -0.16377986 16.82508923 -0.20654297 10.22094727 C-0.17886938 6.81177459 -0.10673687 3.40767338 0 0 Z " fill="#AE905F" transform="translate(9,53)"/>
<path d="M0 0 C0.4125 0.45375 0.825 0.9075 1.25 1.375 C3.06408095 3.05950374 4.75285627 3.99265971 7 5 C6.67 7.31 6.34 9.62 6 12 C6.66 12.33 7.32 12.66 8 13 C8 14.98 8 16.96 8 19 C5.66097658 16.66097658 5.08713977 14.85854029 4 11.75 C3.65453125 10.76902344 3.3090625 9.78804687 2.953125 8.77734375 C1.95098097 5.85716175 0.95247939 2.93681147 0 0 Z " fill="#D59027" transform="translate(110,27)"/>
<path d="M0 0 C1.65 0 3.3 0 5 0 C5.625 1.8125 5.625 1.8125 6 4 C5.01 5.485 5.01 5.485 4 7 C2.35 6.67 0.7 6.34 -1 6 C-0.67 4.02 -0.34 2.04 0 0 Z " fill="#A5A4BB" transform="translate(60,50)"/>
<path d="M0 0 C0.33 0 0.66 0 1 0 C1.06058594 1.2065625 1.12117187 2.413125 1.18359375 3.65625 C1.26807818 5.27084124 1.35272211 6.88542414 1.4375 8.5 C1.47681641 9.29148437 1.51613281 10.08296875 1.55664062 10.8984375 C1.82705218 15.97385441 2.3127142 20.96375445 3 26 C2.34 26.33 1.68 26.66 1 27 C-0.3308911 24.33821779 -0.11268993 22.31260604 -0.09765625 19.3359375 C-0.09443359 18.21445313 -0.09121094 17.09296875 -0.08789062 15.9375 C-0.07951172 14.761875 -0.07113281 13.58625 -0.0625 12.375 C-0.05798828 11.19164062 -0.05347656 10.00828125 -0.04882812 8.7890625 C-0.03701467 5.85932493 -0.02054258 2.92968728 0 0 Z " fill="#E79C35" transform="translate(1,52)"/>
<path d="M0 0 C0.99 0.66 1.98 1.32 3 2 C1.8553125 2.8971875 1.8553125 2.8971875 0.6875 3.8125 C-1.90814837 5.8058899 -1.90814837 5.8058899 -3.5 7.6875 C-5.52392064 9.45843056 -7.37879014 9.64578245 -10 10 C-3.84965831 2.51708428 -3.84965831 2.51708428 0 0 Z " fill="#5285A7" transform="translate(42,27)"/>
<path d="M0 0 C1.5 1.125 1.5 1.125 3 3 C3.1875 6.1875 3.1875 6.1875 3 9 C2.01 9.495 2.01 9.495 1 10 C-1.79579355 8.60210322 -2.59807058 6.7371003 -4 4 C-3.67 3.34 -3.34 2.68 -3 2 C-2.34 2 -1.68 2 -1 2 C-0.67 1.34 -0.34 0.68 0 0 Z " fill="#FAD542" transform="translate(102,19)"/>
<path d="M0 0 C-0.55558594 0.27585937 -1.11117187 0.55171875 -1.68359375 0.8359375 C-3.2862117 1.64130031 -4.88221078 2.45992031 -6.47265625 3.2890625 C-7.32730469 3.72992187 -8.18195312 4.17078125 -9.0625 4.625 C-9.91972656 5.07101563 -10.77695312 5.51703125 -11.66015625 5.9765625 C-14 7 -14 7 -17 7 C-11.61580784 1.24903725 -7.96508223 -1.16157449 0 0 Z " fill="#E8EBEF" transform="translate(60,20)"/>
<path d="M0 0 C4.95 0 9.9 0 15 0 C15 1.65 15 3.3 15 5 C14.34 4.01 13.68 3.02 13 2 C12.484375 2.20625 11.96875 2.4125 11.4375 2.625 C7.96734329 3.15887026 5.29364209 2.07676761 2 1 C2 1.99 2 2.98 2 4 C1.34 4 0.68 4 0 4 C0 2.68 0 1.36 0 0 Z " fill="#2C72A0" transform="translate(95,55)"/>
<path d="M0 0 C1.32 0 2.64 0 4 0 C4 2.97 4 5.94 4 9 C2.68 8.34 1.36 7.68 0 7 C0 4.69 0 2.38 0 0 Z " fill="#1C76B4" transform="translate(59,11)"/>
<path d="M0 0 C0.66 0.33 1.32 0.66 2 1 C-0.36292656 3.52588702 -1.66462511 4.88820837 -5 6 C-6.20882096 8.00016466 -6.20882096 8.00016466 -7 10 C-7.99 9.34 -8.98 8.68 -10 8 C-8.71064081 6.85157077 -7.41843421 5.70633773 -6.125 4.5625 C-5.04605469 3.60537109 -5.04605469 3.60537109 -3.9453125 2.62890625 C-2 1 -2 1 0 0 Z " fill="#FCF2DE" transform="translate(35,16)"/>
<path d="M0 0 C2.31 0 4.62 0 7 0 C6.02433888 1.16959987 5.044375 2.33561177 4.0625 3.5 C3.51722656 4.1496875 2.97195312 4.799375 2.41015625 5.46875 C1.94480469 5.9740625 1.47945312 6.479375 1 7 C0.67 7 0.34 7 0 7 C0 4.69 0 2.38 0 0 Z " fill="#BFD7E6" transform="translate(12,61)"/>
<path d="M0 0 C1.32 0 2.64 0 4 0 C4 0.66 4 1.32 4 2 C4.66 2 5.32 2 6 2 C6.66 3.65 7.32 5.3 8 7 C4.66272214 5.82744291 2.22562513 4.81131596 0 2 C0 1.34 0 0.68 0 0 Z " fill="#FDCB56" transform="translate(23,104)"/>
<path d="M0 0 C0.33 0 0.66 0 1 0 C1.19294408 4.82360189 0.75747614 8.49646738 -1 13 C-1.66 13 -2.32 13 -3 13 C-2.69128878 11.20767663 -2.37790936 9.41615679 -2.0625 7.625 C-1.88847656 6.62726563 -1.71445313 5.62953125 -1.53515625 4.6015625 C-1 2 -1 2 0 0 Z " fill="#E1B762" transform="translate(110,70)"/>
<path d="M0 0 C0.66 0 1.32 0 2 0 C2.33 0.99 2.66 1.98 3 3 C4.65 3 6.3 3 8 3 C6.49336217 6.01327566 3.96833589 6.61056618 1 8 C0 7 0 7 -0.0625 3.4375 C-0.041875 2.303125 -0.02125 1.16875 0 0 Z " fill="#6E6B7D" transform="translate(14,76)"/>
<path d="M0 0 C2.4375 0.75 2.4375 0.75 5 2 C5.8125 4.125 5.8125 4.125 6 6 C4.125 6.625 4.125 6.625 2 7 C0 5 0 5 -0.125 2.375 C-0.08375 1.59125 -0.0425 0.8075 0 0 Z " fill="#F8D845" transform="translate(12,86)"/>
<path d="M0 0 C0.99 0 1.98 0 3 0 C5 5.625 5 5.625 5 9 C2 7 -1 5 -4 3 C-2.68 3 -1.36 3 0 3 C0 2.01 0 1.02 0 0 Z " fill="#8E91B5" transform="translate(89,50)"/>
<path d="M0 0 C0.33 0 0.66 0 1 0 C1.125 2.375 1.125 2.375 1 5 C-1 7 -1 7 -3.625 7.125 C-4.40875 7.08375 -5.1925 7.0425 -6 7 C-4.625 5 -4.625 5 -3 3 C-2.34 3 -1.68 3 -1 3 C-0.67 2.01 -0.34 1.02 0 0 Z " fill="#E1C661" transform="translate(99,93)"/>
<path d="M0 0 C-0.33 1.093125 -0.66 2.18625 -1 3.3125 C-2.13086649 6.84578884 -2.13086649 6.84578884 -2 10 C-4.0625 8.25 -4.0625 8.25 -6 6 C-5.9375 3.875 -5.9375 3.875 -5 2 C-2 0 -2 0 0 0 Z " fill="#2378A2" transform="translate(37,35)"/>
<path d="M0 0 C3.3 0 6.6 0 10 0 C10.33 0.99 10.66 1.98 11 3 C5.71910976 3.30466674 4.422832 3.317124 0 0 Z " fill="#9A97B4" transform="translate(60,30)"/>
<path d="M0 0 C0.66 0.66 1.32 1.32 2 2 C-0.3125 4.5 -0.3125 4.5 -3 7 C-3.99 7 -4.98 7 -6 7 C-4.52307692 2.32307692 -4.52307692 2.32307692 -1.875 0.6875 C-1.25625 0.460625 -0.6375 0.23375 0 0 Z " fill="#ED9F35" transform="translate(12,23)"/>
<path d="M0 0 C0.33 0 0.66 0 1 0 C0.67 3.96 0.34 7.92 0 12 C-1.65 10.68 -3.3 9.36 -5 8 C-4.0409375 7.13375 -4.0409375 7.13375 -3.0625 6.25 C-1.01776132 4.01937599 -0.41794801 2.92563609 0 0 Z " fill="#988DA8" transform="translate(32,90)"/>
<path d="M0 0 C1.98 0 3.96 0 6 0 C6 0.99 6 1.98 6 3 C4.35 3 2.7 3 1 3 C1 4.65 1 6.3 1 8 C0.67 8 0.34 8 0 8 C0 5.36 0 2.72 0 0 Z " fill="#1E7BB3" transform="translate(11,57)"/>
<path d="M0 0 C3.3125 -0.1875 3.3125 -0.1875 7 0 C7.99 0.99 8.98 1.98 10 3 C6.7 3 3.4 3 0 3 C0 2.01 0 1.02 0 0 Z " fill="#625E84" transform="translate(81,54)"/>
<path d="M0 0 C3.95820859 0.56545837 6.6659053 1.80902348 10 4 C9.67 4.66 9.34 5.32 9 6 C4.05 4.02 4.05 4.02 -1 2 C-0.67 1.34 -0.34 0.68 0 0 Z " fill="#E3E4ED" transform="translate(71,29)"/>
<path d="M0 0 C3.87302138 1.14430177 7.00263439 2.23320098 10 5 C10 5.66 10 6.32 10 7 C9.484375 6.731875 8.96875 6.46375 8.4375 6.1875 C5.33598585 4.67650593 2.17737194 3.34427274 -1 2 C-0.67 1.34 -0.34 0.68 0 0 Z " fill="#D88331" transform="translate(91,6)"/>
<path d="M0 0 C2.97 0.495 2.97 0.495 6 1 C4.79618552 3.49361571 3.54571278 5.68143083 2 8 C1.34 5.36 0.68 2.72 0 0 Z " fill="#BEC7D1" transform="translate(88,93)"/>
<path d="M0 0 C0.99 1.485 0.99 1.485 2 3 C2.8885391 4.00648677 3.78451268 5.00645521 4.6875 6 C5.450625 6.99 6.21375 7.98 7 9 C6.67 9.99 6.34 10.98 6 12 C0.11816193 5.92560175 0.11816193 5.92560175 -0.375 2.0625 C-0.25125 1.381875 -0.1275 0.70125 0 0 Z " fill="#DFB45A" transform="translate(11,77)"/>
<path d="M0 0 C1.98 0 3.96 0 6 0 C6 1.98 6 3.96 6 6 C5.34 6 4.68 6 4 6 C2.61061923 4.03852126 1.2739589 2.03833424 0 0 Z " fill="#DAE5F5" transform="translate(103,62)"/>
<path d="M0 0 C0.33 0.66 0.66 1.32 1 2 C0.22265625 3.9453125 0.22265625 3.9453125 -0.9375 6.125 C-1.31777344 6.84945312 -1.69804687 7.57390625 -2.08984375 8.3203125 C-2.39019531 8.87460937 -2.69054687 9.42890625 -3 10 C-3.33 9.34 -3.66 8.68 -4 8 C-4.66 8 -5.32 8 -6 8 C-6 7.01 -6 6.02 -6 5 C-5.01 5 -4.02 5 -3 5 C-1.28288757 2.55503957 -1.28288757 2.55503957 0 0 Z " fill="#385C87" transform="translate(33,49)"/>
<path d="M0 0 C0.33 0 0.66 0 1 0 C0.91291331 1.45945288 0.80473093 2.91765868 0.6875 4.375 C0.62949219 5.18710937 0.57148438 5.99921875 0.51171875 6.8359375 C0 9 0 9 -3 11 C-3 8.69 -3 6.38 -3 4 C-2.34 4 -1.68 4 -1 4 C-0.67 2.68 -0.34 1.36 0 0 Z " fill="#DDDFDD" transform="translate(15,42)"/>
<path d="M0 0 C1.65 0.99 3.3 1.98 5 3 C4.34 4.32 3.68 5.64 3 7 C2.67 6.34 2.34 5.68 2 5 C1.01 4.67 0.02 4.34 -1 4 C-0.67 2.68 -0.34 1.36 0 0 Z " fill="#A7A6BD" transform="translate(63,46)"/>
<path d="M0 0 C1.73662334 3.22515763 2.8905928 6.51329166 4 10 C3.34 10 2.68 10 2 10 C2 9.34 2 8.68 2 8 C1.34 8 0.68 8 0 8 C-0.79953138 4.71303767 -1.09658936 3.28976808 0 0 Z " fill="#DF932B" transform="translate(4,78)"/>
<path d="M0 0 C1.98362069 2.91708924 1.9876191 4.12380904 1.625 7.75 C1.41875 8.8225 1.2125 9.895 1 11 C0.01 9.68 -0.98 8.36 -2 7 C-1.34 7 -0.68 7 0 7 C0 4.69 0 2.38 0 0 Z " fill="#537581" transform="translate(109,61)"/>
<path d="M0 0 C0.66 0 1.32 0 2 0 C2.625 3.375 2.625 3.375 3 7 C2.34 7.66 1.68 8.32 1 9 C0.01 7.68 -0.98 6.36 -2 5 C-1.01 5 -0.02 5 1 5 C0.67 3.35 0.34 1.7 0 0 Z " fill="#797D9F" transform="translate(27,57)"/>
<path d="M0 0 C1.32 1.32 2.64 2.64 4 4 C1.69 4.33 -0.62 4.66 -3 5 C-3.33 4.34 -3.66 3.68 -4 3 C-3.34 3 -2.68 3 -2 3 C-1.34 2.01 -0.68 1.02 0 0 Z " fill="#447197" transform="translate(85,33)"/>
<path d="M0 0 C0.99 0.33 1.98 0.66 3 1 C3 3.31 3 5.62 3 8 C1.68 7.67 0.36 7.34 -1 7 C-0.67 4.69 -0.34 2.38 0 0 Z " fill="#D57921" transform="translate(1,77)"/>
<path d="M0 0 C1 2 1 2 1 6 C-1.97 5.505 -1.97 5.505 -5 5 C-5 4.34 -5 3.68 -5 3 C-3.68 3 -2.36 3 -1 3 C-0.67 2.01 -0.34 1.02 0 0 Z " fill="#B4B2CD" transform="translate(65,54)"/>
<path d="M0 0 C2.475 0.495 2.475 0.495 5 1 C4.67 2.32 4.34 3.64 4 5 C3.01 4.67 2.02 4.34 1 4 C0.3125 1.9375 0.3125 1.9375 0 0 Z " fill="#3D3C50" transform="translate(61,50)"/>
<path d="M0 0 C0.99 0 1.98 0 3 0 C3 0.66 3 1.32 3 2 C-1.47058824 6 -1.47058824 6 -4 6 C-3.34 4.68 -2.68 3.36 -2 2 C-1.34 2 -0.68 2 0 2 C0 1.34 0 0.68 0 0 Z " fill="#446978" transform="translate(95,94)"/>
<path d="M0 0 C2 3.75 2 3.75 2 6 C2.66 6 3.32 6 4 6 C3.67 6.99 3.34 7.98 3 9 C2.01 8.67 1.02 8.34 0 8 C0 5.36 0 2.72 0 0 Z " fill="#2D7AAD" transform="translate(27,46)"/>
<path d="M0 0 C3.37503669 1.1858237 5.64722731 2.27573689 8 5 C4.62537285 4.45276317 2.91765 3.9451 0 2 C0 1.34 0 0.68 0 0 Z " fill="#FDF3D8" transform="translate(84,16)"/>
<path d="M0 0 C3 1 3 1 3 1 Z " fill="#EAAE4E" transform="translate(81,127)"/>
<path d="M0 0 C3 1 3 1 3 1 Z " fill="#E6AD4E" transform="translate(44,127)"/>
<path d="M0 0 C3 1 3 1 3 1 Z " fill="#ED7C31" transform="translate(84,126)"/>
<path d="M0 0 C3 1 3 1 3 1 Z " fill="#E87731" transform="translate(41,126)"/>
<path d="" fill="#EA763A" transform="translate(0,0)"/>
<path d="" fill="#DE7232" transform="translate(0,0)"/>
<path d="" fill="#EE7B3D" transform="translate(0,0)"/>
<path d="" fill="#E4A13C" transform="translate(0,0)"/>
<path d="" fill="#CB7C3A" transform="translate(0,0)"/>
<path d="M0 0 C3 1 3 1 3 1 Z " fill="#EB7633" transform="translate(84,1)"/>
<path d="M0 0 C3 1 3 1 3 1 Z " fill="#D78622" transform="translate(38,1)"/>
<path d="M0 0 C3 1 3 1 3 1 Z " fill="#E7B146" transform="translate(81,0)"/>
<path d="M0 0 C3 1 3 1 3 1 Z " fill="#D99A3D" transform="translate(41,0)"/>
<path d="M0 0 C2 1 2 1 2 1 Z " fill="#E67C35" transform="translate(87,125)"/>
<path d="M0 0 C2 1 2 1 2 1 Z " fill="#DA792F" transform="translate(39,125)"/>
<path d="M0 0 C2 1 2 1 2 1 Z " fill="#D26910" transform="translate(89,124)"/>
<path d="M0 0 C2 1 2 1 2 1 Z " fill="#CA6D0B" transform="translate(37,124)"/>
<path d="M0 0 C2 1 2 1 2 1 Z " fill="#C76E36" transform="translate(91,123)"/>
<path d="M0 0 C2 1 2 1 2 1 Z " fill="#CC7836" transform="translate(35,123)"/>
<path d="M0 0 C2 1 2 1 2 1 Z " fill="#AD4A05" transform="translate(93,122)"/>
<path d="M0 0 C2 1 2 1 2 1 Z " fill="#A94202" transform="translate(33,122)"/>
<path d="M0 0 C2 1 2 1 2 1 Z " fill="#D58138" transform="translate(95,121)"/>
<path d="M0 0 C2 1 2 1 2 1 Z " fill="#D68638" transform="translate(31,121)"/>
<path d="M0 0 C2 1 2 1 2 1 Z " fill="#F2602B" transform="translate(97,120)"/>
<path d="M0 0 C2 1 2 1 2 1 Z " fill="#EB632A" transform="translate(29,120)"/>
<path d="M0 0 C2 1 2 1 2 1 Z " fill="#CC5F36" transform="translate(100,118)"/>
<path d="M0 0 C2 1 2 1 2 1 Z " fill="#CD692C" transform="translate(26,118)"/>
<path d="M0 0 C2 1 2 1 2 1 Z " fill="#E9B81C" transform="translate(105,114)"/>
<path d="M0 0 C2 1 2 1 2 1 Z " fill="#ECBB30" transform="translate(21,114)"/>
<path d="" fill="#FC9748" transform="translate(0,0)"/>
<path d="" fill="#F49A4E" transform="translate(0,0)"/>
<path d="" fill="#E27B3C" transform="translate(0,0)"/>
<path d="" fill="#DE7437" transform="translate(0,0)"/>
<path d="" fill="#E17B3D" transform="translate(0,0)"/>
<path d="" fill="#FA9E51" transform="translate(0,0)"/>
<path d="" fill="#CF7E37" transform="translate(0,0)"/>
<path d="" fill="#D48047" transform="translate(0,0)"/>
<path d="" fill="#E9943A" transform="translate(0,0)"/>
<path d="M0 0 C2 1 2 1 2 1 Z " fill="#ECBD30" transform="translate(105,13)"/>
<path d="M0 0 C2 1 2 1 2 1 Z " fill="#CEA618" transform="translate(21,11)"/>
<path d="M0 0 C2 1 2 1 2 1 Z " fill="#CD6137" transform="translate(100,9)"/>
<path d="M0 0 C2 1 2 1 2 1 Z " fill="#FDC651" transform="translate(25,8)"/>
<path d="M0 0 C2 1 2 1 2 1 Z " fill="#E96633" transform="translate(97,7)"/>
<path d="M0 0 C2 1 2 1 2 1 Z " fill="#D48038" transform="translate(95,6)"/>
<path d="M0 0 C2 1 2 1 2 1 Z " fill="#CB6F3C" transform="translate(28,6)"/>
<path d="M0 0 C2 1 2 1 2 1 Z " fill="#B74702" transform="translate(93,5)"/>
<path d="M0 0 C2 1 2 1 2 1 Z " fill="#E78518" transform="translate(30,5)"/>
<path d="M0 0 C2 1 2 1 2 1 Z " fill="#CB6D2F" transform="translate(91,4)"/>
<path d="M0 0 C2 1 2 1 2 1 Z " fill="#BB7719" transform="translate(32,4)"/>
<path d="M0 0 C2 1 2 1 2 1 Z " fill="#DC790F" transform="translate(89,3)"/>
<path d="M0 0 C2 1 2 1 2 1 Z " fill="#D49521" transform="translate(34,3)"/>
<path d="M0 0 C2 1 2 1 2 1 Z " fill="#E97C33" transform="translate(87,2)"/>
<path d="M0 0 C2 1 2 1 2 1 Z " fill="#C78C35" transform="translate(36,2)"/>
<path d="" fill="#C5430F" transform="translate(0,0)"/>
<path d="" fill="#C35007" transform="translate(0,0)"/>
<path d="" fill="#D59456" transform="translate(0,0)"/>
<path d="" fill="#D08F4E" transform="translate(0,0)"/>
<path d="" fill="#B47633" transform="translate(0,0)"/>
<path d="" fill="#BA7C38" transform="translate(0,0)"/>
<path d="" fill="#C77F28" transform="translate(0,0)"/>
<path d="" fill="#C07732" transform="translate(0,0)"/>
<path d="" fill="#D59630" transform="translate(0,0)"/>
<path d="" fill="#D2922F" transform="translate(0,0)"/>
<path d="" fill="#A55A04" transform="translate(0,0)"/>
<path d="" fill="#A05D02" transform="translate(0,0)"/>
<path d="" fill="#DB903E" transform="translate(0,0)"/>
<path d="" fill="#D8923A" transform="translate(0,0)"/>
<path d="" fill="#FBA752" transform="translate(0,0)"/>
<path d="" fill="#F8A74C" transform="translate(0,0)"/>
<path d="" fill="#AB5F0D" transform="translate(0,0)"/>
<path d="" fill="#B36B12" transform="translate(0,0)"/>
<path d="" fill="#B76708" transform="translate(0,0)"/>
<path d="" fill="#9D5800" transform="translate(0,0)"/>
<path d="" fill="#C18543" transform="translate(0,0)"/>
<path d="" fill="#C17D39" transform="translate(0,0)"/>
<path d="" fill="#C0853D" transform="translate(0,0)"/>
<path d="" fill="#CC803F" transform="translate(0,0)"/>
<path d="" fill="#A65B05" transform="translate(0,0)"/>
<path d="" fill="#FBAB4D" transform="translate(0,0)"/>
<path d="" fill="#B56A21" transform="translate(0,0)"/>
<path d="" fill="#CB7925" transform="translate(0,0)"/>
<path d="" fill="#F9A659" transform="translate(0,0)"/>
<path d="" fill="#F88838" transform="translate(0,0)"/>
<path d="" fill="#DA9040" transform="translate(0,0)"/>
<path d="" fill="#EC7F35" transform="translate(0,0)"/>
<path d="" fill="#AA5C09" transform="translate(0,0)"/>
<path d="" fill="#FD8237" transform="translate(0,0)"/>
<path d="" fill="#D48A31" transform="translate(0,0)"/>
<path d="" fill="#CE7A19" transform="translate(0,0)"/>
<path d="" fill="#FDAD24" transform="translate(0,0)"/>
<path d="" fill="#BB7423" transform="translate(0,0)"/>
<path d="" fill="#D2960F" transform="translate(0,0)"/>
<path d="" fill="#BC8330" transform="translate(0,0)"/>
<path d="" fill="#CE8A43" transform="translate(0,0)"/>
<path d="" fill="#C58540" transform="translate(0,0)"/>
<path d="" fill="#EAAF2F" transform="translate(0,0)"/>
<path d="" fill="#BE4916" transform="translate(0,0)"/>
<path d="" fill="#FFA65E" transform="translate(0,0)"/>
</svg>
